<?xml version="1.0" encoding="UTF-8"?>
<svg xmlns="http://www.w3.org/2000/svg" viewBox="0 0 512 512">
  <circle fill="#23f019" cx="256" cy="256" r="256"/>
  <polygon fill="#fff" points="431.67 221.15 433.88 221.15 433.88 210.09 431.67 210.09 431.67 190.92 429.45 190.92 429.45 171.75 427.61 171.75 427.61 161.43 425.4 161.43 425.4 148.52 423.19 148.52 423.19 142.26 420.97 142.26 420.98 137.83 418.76 137.83 418.77 133.78 416.92 133.78 416.92 131.56 414.71 131.57 414.55 127.49 412.49 127.14 412.5 125.3 410.28 125.3 410.29 120.87 408.44 120.88 408.1 118.82 406.23 118.66 405.89 116.61 404.02 116.45 404.02 114.6 401.8 114.61 401.81 112.39 399.96 112.4 399.62 110.34 397.75 110.18 397.41 108.13 395.54 107.97 395.54 103.91 393.32 103.92 393.33 101.7 389.27 101.71 388.93 99.65 387.06 99.49 387.06 97.65 384.84 97.65 384.85 95.43 382.63 95.44 382.64 93.22 378.58 93.23 378.23 91.17 374.15 91.01 374.16 88.8 370.1 88.8 370.1 86.96 367.89 86.96 367.89 84.74 365.67 84.75 365.68 82.53 361.62 82.53 361.07 80.32 354.99 80.32 354.99 78.48 348.72 78.48 348.72 76.26 344.66 76.27 344.32 74.21 340.24 74.06 340.24 71.84 335.81 71.84 335.81 70 327.34 70 327.34 67.79 318.86 67.79 318.86 65.57 306.32 65.57 305.77 63.36 250.65 63.36 250.65 65.57 237.75 65.57 237.75 67.79 216.37 67.79 216.37 70 214.9 70 214.9 65.57 212.68 65.58 212.08 63.41 208.26 63.36 208.26 61.15 206.41 61.15 206.42 59.31 201.99 59.31 201.99 57.09 197.57 57.1 197.57 54.88 191.3 54.88 191.3 52.67 182.82 52.67 182.82 50.83 165.49 50.83 165.5 52.67 163.63 52.83 163.28 54.88 161.07 55.44 161.07 61.15 159.22 61.15 159.23 63.36 152.96 63.36 152.96 61.15 142.27 61.15 142.27 59.31 131.58 59.31 131.58 61.15 127.5 61.31 127.15 63.36 125.1 63.71 124.94 65.57 114.25 65.57 114.25 67.79 105.77 67.79 105.77 70 103.93 70 103.93 78.48 105.77 78.48 105.93 82.56 107.98 82.9 107.98 86.96 110.2 86.96 110.19 91.38 112.41 91.38 112.4 95.44 114.25 95.43 114.41 99.51 118.68 99.86 118.67 103.92 120.89 103.91 120.88 106.13 124.94 106.13 125.29 108.18 129.37 108.34 129.37 114.61 127.15 114.6 127.15 118.66 125.1 119.01 124.94 120.88 123.1 120.87 123.1 125.3 120.88 125.3 120.89 127.14 118.83 127.49 118.68 135.62 116.51 136.23 116.47 192.92 114.25 193.68 114.25 201.61 112.41 201.61 112.41 210.09 110.19 210.09 110.19 216.73 107.98 216.73 107.98 235.9 110.2 235.89 110.19 240.32 112.41 240.32 112.41 246.22 110.19 246.22 110.2 250.64 107.98 250.64 107.98 256.91 105.93 257.25 105.77 259.12 103.93 259.12 103.93 263.55 101.71 263.54 101.72 267.6 99.66 267.95 99.51 272.03 97.29 272.02 97.29 276.08 95.45 276.08 95.45 280.51 93.23 280.5 93.24 284.56 91.18 284.9 91.03 288.99 88.81 288.98 88.81 293.04 86.76 293.38 86.6 297.46 84.76 297.46 84.76 301.52 82.54 301.52 82.55 303.73 80.68 303.89 80.33 305.94 78.12 305.94 78.12 325.11 80.34 325.11 80.33 327.33 84.76 327.32 84.76 329.54 88.81 329.53 89.37 331.75 112.41 331.75 112.4 333.59 114.25 333.59 114.41 337.67 116.46 338.01 116.51 356.58 118.67 357.19 119.02 359.24 120.89 359.4 120.89 367.88 123.1 367.87 123.1 371.93 127.16 371.93 127.15 374.15 129.37 374.14 129.36 376.36 133.42 376.35 133.58 378.22 135.63 378.57 135.63 382.62 137.85 382.62 137.85 384.47 133.58 384.81 133.42 388.89 131.57 388.89 131.58 392.95 129.37 392.95 129.37 412.48 131.58 412.48 131.57 416.54 133.42 416.54 133.58 420.62 135.63 420.96 135.98 423.02 137.85 423.17 137.84 425.02 180.61 425.02 180.61 423.18 186.88 423.18 186.88 425.02 193.14 425.02 193.14 448.61 195.36 448.61 195.35 452.67 197.2 452.67 197.2 457.09 206.05 457.09 206.05 459.3 216.37 459.3 216.53 461.17 289.2 461.17 289.36 459.3 299.69 459.3 299.69 457.09 308.17 457.09 308.16 454.88 312.59 454.88 312.59 452.67 321.07 452.67 321.07 450.82 325.15 450.67 325.49 448.61 333.37 448.56 333.97 446.4 338.03 446.4 338.02 444.19 342.45 444.19 342.45 442.34 346.51 442.35 346.5 440.13 350.59 439.97 350.93 437.92 353.14 437.92 353.14 435.71 357.2 435.71 357.2 433.86 361.28 433.71 361.62 431.65 365.68 431.66 365.67 429.44 367.89 429.44 367.89 427.23 370.1 427.23 370.1 418.75 367.89 418.75 367.89 414.33 365.68 414.33 365.68 408.06 363.46 408.06 363.46 384.83 365.68 384.84 365.67 382.62 367.89 382.62 367.89 378.57 369.94 378.22 370.1 374.14 372.31 374.15 372.31 369.72 374.16 369.72 374.16 363.45 376.37 363.45 376.37 361.24 378.58 361.24 378.58 359.4 380.63 359.05 380.79 354.97 382.64 354.98 382.63 352.76 384.85 352.76 384.85 348.71 386.9 348.36 387.06 344.28 389.27 344.28 389.27 342.07 391.12 342.07 391.11 338.01 393.33 338.02 393.32 333.59 395.54 333.59 395.54 329.54 397.59 329.19 397.75 323.27 399.8 322.92 399.96 318.84 401.81 318.85 401.8 314.42 404.02 314.42 404.02 310.36 406.07 310.02 406.23 305.94 408.44 305.94 408.44 304.1 410.29 304.1 410.28 301.89 416.37 301.89 416.92 299.67 418.77 299.68 418.76 295.62 420.98 295.62 420.97 293.41 423.19 293.41 423.19 291.19 425.4 291.2 425.4 272.02 427.61 272.02 427.61 265.94 425.39 265.18 425.4 257.28 427.61 256.73 427.61 250.64 429.45 250.64 429.45 238.11 431.67 238.11 431.67 233.9 429.45 233.69 429.45 231.47 431.67 231.47 431.67 221.15"/>
  <g>
    <path d="M182.82,50.83v1.84h8.48v2.21h6.27v2.21s4.43,0,4.43,0v2.22s4.42,0,4.42,0v1.85s1.84,0,1.84,0v2.22s3.82.05,3.82.05l.6,2.16h2.21s0,4.42,0,4.42h1.47s0-2.21,0-2.21h21.38v-2.21h12.9v-2.21h55.11l.55,2.21h12.53v2.21h8.48v2.21h8.48v1.85s4.43,0,4.43,0v2.22s4.08.16,4.08.16l.34,2.05h4.06s0,2.21,0,2.21h6.27v1.84h6.08l.55,2.21h4.06s0,2.21,0,2.21h2.22s0,2.21,0,2.21h2.22s0,1.84,0,1.84h4.06s0,2.21,0,2.21l4.08.16.34,2.05h4.06s0,2.21,0,2.21h2.22s0,2.21,0,2.21h2.22s0,1.84,0,1.84l1.87.16.34,2.06h4.06s0,2.21,0,2.21h2.22s0,4.05,0,4.05l1.87.16.34,2.05,1.87.16.34,2.06h1.85s0,2.21,0,2.21h2.22s0,1.84,0,1.84l1.87.16.34,2.05,1.87.16.34,2.06h1.85s0,4.42,0,4.42h2.22s0,1.84,0,1.84l2.05.34.16,4.08h2.22s0,2.21,0,2.21h1.85s0,4.06,0,4.06h2.22s0,4.42,0,4.42h2.21s0,6.27,0,6.27h2.21v12.9h2.21v10.32h1.84v19.17h2.21v19.17h2.21v11.06h-2.21v10.32h-2.21s0,2.21,0,2.21l2.22.21v4.21s-2.22,0-2.22,0v12.53h-1.84v6.08l-2.21.55v7.9s2.21.76,2.21.76v6.08h-2.21v19.17h-2.21s0,2.21,0,2.21h-2.22s0,2.21,0,2.21h-2.22s0,4.06,0,4.06h-1.85s-.55,2.21-.55,2.21h-6.08v2.21s-1.85,0-1.85,0v1.85s-2.21,0-2.21,0l-.16,4.08-2.05.34v4.06s-2.21,0-2.21,0v4.43s-1.84,0-1.84,0l-.16,4.08-2.05.34-.16,5.92-2.05.34v4.06s-2.21,0-2.21,0v4.43s-2.21,0-2.21,0v4.06s-1.84,0-1.84,0v2.22s-2.21,0-2.21,0l-.16,4.08-2.05.34v4.06s-2.21,0-2.21,0v2.22s-1.84,0-1.84,0l-.16,4.08-2.05.34v1.85s-2.21,0-2.21,0v2.22s-2.21,0-2.21,0v6.27h-1.85s0,4.43,0,4.43h-2.22s-.16,4.08-.16,4.08l-2.05.34v4.06s-2.21,0-2.21,0v2.22s-2.21,0-2.21,0v23.23h2.21v6.27h2.21s0,4.43,0,4.43h2.21s0,8.48,0,8.48h-2.21s0,2.21,0,2.21h-2.22s0,2.21,0,2.21h-4.06s-.34,2.05-.34,2.05l-4.08.16v1.85s-4.06,0-4.06,0v2.22s-2.21,0-2.21,0l-.34,2.05-4.08.16v2.22s-4.06,0-4.06,0v1.85s-4.42,0-4.42,0v2.22s-4.05,0-4.05,0l-.6,2.16-7.87.05-.34,2.05-4.08.16v1.85s-8.48,0-8.48,0v2.21s-4.43,0-4.43,0v2.21s-8.48,0-8.48,0v2.21h-10.32l-.16,1.87h-72.67l-.16-1.87h-10.32v-2.21h-8.85v-4.43s-1.85,0-1.85,0v-4.06s-2.21,0-2.21,0v-23.59h-6.27v-1.84h-6.27v1.84h-42.76v-1.84s-1.87-.16-1.87-.16l-.34-2.05-2.05-.35-.16-4.08h-1.85s0-4.06,0-4.06h-2.21s0-19.54,0-19.54h2.21s0-4.06,0-4.06h1.85s.16-4.08.16-4.08l4.26-.34v-1.85s-2.22,0-2.22,0v-4.06s-2.05-.34-2.05-.34l-.16-1.87h-4.06s0-2.21,0-2.21h-2.22s0-2.21,0-2.21h-4.06s0-4.06,0-4.06h-2.21s0-8.48,0-8.48l-1.87-.16-.35-2.05-2.16-.61-.05-18.57-2.05-.34-.16-4.08h-1.85s0-1.84,0-1.84h-23.04l-.55-2.21h-4.06s0-2.21,0-2.21h-4.43s0-2.21,0-2.21h-2.21s0-19.17,0-19.17h2.21s.34-2.05.34-2.05l1.87-.16v-2.21s2.21,0,2.21,0v-4.06s1.84,0,1.84,0l.16-4.08,2.05-.34v-4.06s2.21,0,2.21,0l.16-4.08,2.05-.34v-4.06s2.21,0,2.21,0v-4.43s1.84,0,1.84,0v-4.06s2.21,0,2.21,0l.16-4.08,2.05-.34v-4.06s2.21,0,2.21,0v-4.43s1.84,0,1.84,0l.16-1.87,2.05-.34v-6.27h2.21s0-4.43,0-4.43h2.21s0-5.9,0-5.9h-2.21s0-4.43,0-4.43h-2.21s0-19.17,0-19.17h2.21v-6.64h2.21v-8.48h1.84v-7.93l2.22-.76.04-56.7,2.16-.6.16-8.14,2.05-.34v-1.85s2.21,0,2.21,0v-4.43s1.84,0,1.84,0l.16-1.87,2.06-.34v-4.06s2.21,0,2.21,0v-6.27l-4.08-.16-.34-2.05h-4.06s0-2.21,0-2.21h-2.22s0-4.06,0-4.06l-4.26-.34-.16-4.08h-1.85s0-4.06,0-4.06h-2.22s0-4.42,0-4.42h-2.22s0-4.05,0-4.05l-2.05-.34-.16-4.08h-1.85s0-8.48,0-8.48h1.85s0-2.21,0-2.21h8.48v-2.21h10.69l.16-1.87,2.05-.35.35-2.05,4.08-.16v-1.85s10.69,0,10.69,0v1.84h10.69v2.21h6.27v-2.21s1.84,0,1.84,0v-5.71l2.21-.55.34-2.05,1.87-.16v-1.84s17.33,0,17.33,0ZM165.86,57.1v10.69h4.06s0,2.21,0,2.21h-1.85s0,1.84,0,1.84h10.14l.51,1.98-2.17.6v1.84s-13.27,0-13.27,0v-4.06s-1.87-.16-1.87-.16l-.34-2.06h-4.06s0-2.21,0-2.21h-2.22s0-2.21,0-2.21h-14.75s0-1.84,0-1.84h-2.22s0-2.21,0-2.21h-5.9v1.85s1.85,0,1.85,0v2s-1.85.21-1.85.21v2.22s1.85,0,1.85,0v2.22s2.21,0,2.21,0v1.85s1.87.16,1.87.16l.34,2.06h1.85s0-2.21,0-2.21h6.64v2.21h6.27v2.21h8.48v2.21h-21.38v-2.21h-8.48v-1.84h-12.35l-.55-2.21h-6.27l-.21-2.22h-3.84s0,2.22,0,2.22h-2.22s0,1.84,0,1.84h2.22s0,4.42,0,4.42h2.22s0,4.05,0,4.05l2.06.34.16,1.87h1.85s0,4.06,0,4.06h2.22s0,2.21,0,2.21h2.22s0,2.21,0,2.21h2.22s0,2.21,0,2.21h2.22s0,2.21,0,2.21h1.85s0,1.84,0,1.84h2.22s0,2.21,0,2.21l1.87.16.34,2.06h4.06s0,2.21,0,2.21h8.48v1.84h6.08l.55,2.21,2.05.35.16,1.87h8.48v2.21s1.29,0,1.29,0l.19-2.21h15.48l-.55,4.42h-16.41v1.85s4.06,0,4.06,0v2.22s2.21,0,2.21,0v2.22s-4.8,0-4.8,0v-2.22s-1.84,0-1.84,0v-1.85s-2.21,0-2.21,0v-2.22s-4.06,0-4.06,0v4.06s-4.06,0-4.06,0v2.22s2.22,0,2.22,0v2.22s1.84,0,1.84,0v1.85s2.21,0,2.21,0v4.43s2.21,0,2.21,0v2.22s2.21,0,2.21,0l-.35,2.05-1.87.16v1.84h7.93l.55,2.21h8.11v-1.84s-1.87-.16-1.87-.16l-.34-2.05-1.87-.16-.34-2.06h-1.85s0-4.42,0-4.42h1.85s.16-1.87.16-1.87l4.63-.35v2.58s-4.43,0-4.43,0v1.85s2.22,0,2.22,0v2.21s6.27,0,6.27,0v-2.21s4.06,0,4.06,0v-1.85h-4.06s0-2.21,0-2.21h-2.22s0-2.21,0-2.21h6.27v-2.21h-10.69v-2.21s-4.06,0-4.06,0v-2.21h14.75l.16-1.87h2.26s.16,1.87.16,1.87h5.9s.34-2.06.34-2.06l1.87-.16v-1.84h-8.48v-2.21h6.27v-4.06s-2.21-.55-2.21-.55v-5.71h-1.84v-6.64h-2.21v-6.27h-20.83l-.55-2.21h12.9v-2.21s-4.43,0-4.43,0v-1.85s-4.06,0-4.06,0v-4.43s4.43,0,4.43,0v1.85s12.53,0,12.53,0v-1.84h11.06v1.84h16.59v-10.32h-19.17v-4.42h10.69v-1.84h-20.83l-.55-2.21-2.05-.35-.16-1.87h8.48v-2.21s-1.85,0-1.85,0v-1.85s-4.06,0-4.06,0v1.85s-4.42,0-4.42,0v-1.85s-2.21,0-2.21,0v-2.22s-1.84,0-1.84,0v4.06s-4.79,0-4.79,0l-.18-1.85h-1.29s0,1.85,0,1.85h-2.21ZM278.3,67.79h-16.59v2.21h-17.33v2.21s-1.84,0-1.84,0l-.55,2.21h-6.08v1.85s2.21,0,2.21,0v2.21h-13.27v-2.21s-4.06,0-4.06,0v-1.85s-3.84,0-3.84,0l-.22,4.06h2.22s0,4.06,0,4.06h1.85s0-2.22,0-2.22l2.24.16.34,2.05h1.85s0,2.21,0,2.21h6.64v4.06s1.87.16,1.87.16l.34,2.06h4.06s0,2.21,0,2.21h4.43s0,2.21,0,2.21h1.47s0-2.21,0-2.21h19.54v2.21h-19.17v2.21s4.43,0,4.43,0v1.85s1.87.16,1.87.16l.34,2.06h1.85s0,2.21,0,2.21h2.22s0,2.21,0,2.21h2.21s0,6.27,0,6.27h2.21s0,4.06,0,4.06l2.06.34.16,1.87h1.85s0,2.21,0,2.21h2.22s0,2.21,0,2.21h2.22s0,2.21,0,2.21h2.22s0,1.84,0,1.84h1.85s0,2.21,0,2.21l4.08.16.34,2.05h2.21s0,2.21,0,2.21h1.47s0-4.06,0-4.06h-1.85s0-4.42,0-4.42h1.85s0-2,0-2l-1.85-.21v-4.21s1.85-.21,1.85-.21v-4.06s-4.06,0-4.06,0v-2s4.06-.21,4.06-.21v-1.85s-1.85,0-1.85,0v-2.22s-6.29-.16-6.29-.16l-.35-2.05h4.43s0-4.06,0-4.06h-20.83l-.59-1.29.59-1.29h18.62v-4.06h-8.48v-2.21s2.21,0,2.21,0v-1.85h-8.48v-2.21h-20.83l-.55-2.21h14.75v-2.21s-1.85,0-1.85,0v-1.85s-16.96,0-16.96,0v-2.58h8.48v-1.84h10.69v1.85s4.43,0,4.43,0v2.37s-4.43.21-4.43.21v1.85s4.43,0,4.43,0v2.22s1.63,0,1.63,0l.21-2.22h4.43s0,2.21,0,2.21h14.75v-2.21s2,0,2,0l.21,2.22h29.49v-2.21s2.58,0,2.58,0l.21,2.22h1.63s0-2.22,0-2.22h11.06v2.21h8.11v-2.21h19.17v-1.84h-40l-.76-2.22h-1.63s0,2.22,0,2.22h-16.77l-.59-1.29.59-1.29h16.41v-1.85s4.58,0,4.58,0l.21,1.85h8.11v-1.85s2.58,0,2.58,0v1.85s3.47,0,3.47,0l.21-1.85h2.37s.21,1.85.21,1.85h8.11v-1.85s-4.43,0-4.43,0v-2.21s-6.27,0-6.27,0v-1.84h-6.27v-2.21h-8.48v-2.21h-36.13v-2.21ZM123.1,70h-1.85v1.85h1.85v-1.85ZM188.72,82.9h-3.69v1.85h3.69v-1.85ZM212.31,82.9h-5.9v1.84h-15.12v2.21s2.21,0,2.21,0l-.61,2.16-3.82.05v4.06s2.21,0,2.21,0v6.27l1.87.16v2.26s-1.87.16-1.87.16v4.06s4.43,0,4.43,0l-.35,2.05-1.87.16v4.06s4.06,0,4.06,0v2.22s4.42,0,4.42,0v1.85s4.08.16,4.08.16l.34,2.05,5.92.16.34,2.05h4.06s0,2.21,0,2.21h4.43s0,2.21,0,2.21h4.06s0,1.84,0,1.84h6.08l.55,2.21,10.09.05.61,2.16h8.48v2.21h16.59v-2.21h-8.48v-1.84h-8.48v-2.58h14.75v-1.85s-4.06,0-4.06,0v-2.22s-2.21,0-2.21,0v-2.22s-2.21,0-2.21,0v-1.85s-2.05-.34-2.05-.34l-.16-4.08-2.22-.21v-2s2.22,0,2.22,0v-1.85s-4.06,0-4.06,0v-2.21s-6.08,0-6.08,0l-.55-2.21h4.43s0-2.21,0-2.21h-2.22s0-1.84,0-1.84h-4.06s0-4.42,0-4.42h-4.43s0-2.21,0-2.21h-23.23v-2.21h14.75v-1.85s-4.08-.16-4.08-.16l-.34-2.05h-21.01v-2.21h16.96v-2.21h-8.48v-1.84ZM339.87,89.17h-69.68v1.84h5.71l.55,2.21h8.48v2.21s-4.43,0-4.43,0v2.22s-1.84,0-1.84,0v1.85h12.17v-1.85s2.37,0,2.37,0l.21,1.85h14.75v2.58h-10.32v4.06h50.51v-2.21s-4.06,0-4.06,0v-1.85s-10.32,0-10.32,0v1.85s-2.37,0-2.37,0l-.21-1.85h-20.83l-.59-1.29.59-1.29h31.52v-1.84h-6.64v-2.21h-29.49v-2.21h8.48v-2.21s2.42.35,2.42.35l.16,1.87h16.59v-2.21h6.27v-1.84ZM350.56,89.17h-5.9v1.85s4.06,0,4.06,0v2.22s1.63,0,1.63,0l.22-4.06ZM284.57,102.07h-4.06s0,1.85,0,1.85h2.22s0,2.21,0,2.21h1.85s0-4.06,0-4.06ZM289,103.91h-1.85v2.22h1.85v-2.22ZM293.05,103.91h-1.85v2.22h1.85v-2.22ZM361.25,103.91h-1.85v2.22h1.85v-2.22ZM295.08,110.55h-10.14v1.84h16.59v-1.84s-1.87-.16-1.87-.16l-.34-2.06h-3.69s-.55,2.21-.55,2.21ZM318.49,108.34h-8.11v1.84h6.08l.55,2.21h18.43v-1.84h-16.41l-.55-2.21ZM144.11,114.61h-5.9v4.06s1.87.16,1.87.16l.35,2.05h-2.22s0,2.21,0,2.21h-2.22s0,4.05,0,4.05l1.87.16.34,2.05,2.05.35.16,4.08h3.69s0-2.22,0-2.22h2.22s0-1.84,0-1.84l-1.87-.16-.35-4.27h2.21s0-6.08,0-6.08l4.43-.55v-1.85h-6.08l-.55-2.21ZM303.74,114.61h-10.32v2.21h-8.48v1.84h16.96v2.21h-16.96v2.21s-2.21,0-2.21,0v4.06s4.27.34,4.27.34l-.45,2.18-3.82.05v4.06h32.08l-.55,2.21h-29.31v1.84s1.87.16,1.87.16l.34,2.06h2.21s0,6.27,0,6.27h7.93l.55,2.21h-4.43s0,2.21,0,2.21h2.22s0,2.21,0,2.21h14.75v2.21h-12.53v4.06h14.75v2.21s-2.21,0-2.21,0v2.22s-2.23-.16-2.23-.16l-.34-2.05h-8.11v1.85s2.21,0,2.21,0v2.22s12.56.16,12.56.16l.35,2.05h-4.43s0,2.21,0,2.21h2.22s0,1.84,0,1.84l4.08.16.34,2.05h4.06s0,2.21,0,2.21h4.43s0,2.21,0,2.21h1.85s0,2.21,0,2.21h4.43s0,1.84,0,1.84h3.47s.22-1.85.22-1.85h-1.85s0-2.21,0-2.21h-2.22s0-4.05,0-4.05l-1.6-.05-.27-2.37,1.87-.16v-4.06s-2.22,0-2.22,0l.35-2.05,1.87-.16v-4.06h-8.48v-2.21h6.27v-4.06h-16.41l-.55-2.21h14.75v-4.42h-16.96l.55-2.21h14.56v-4.06h-8.48v-2.21h6.27v-2.21s2.21,0,2.21,0v-1.85h-6.08l-.55-2.21h2.22s0-2.21,0-2.21h-2.22s0-1.84,0-1.84h-4.06s0-4.42,0-4.42h-2.22s0-2.21,0-2.21h-2.22s0-2.21,0-2.21h-4.06s0-2.21,0-2.21h1.85s0-1.84,0-1.84h-4.06s0-2.21,0-2.21ZM135.63,116.82h-3.69s-.34,2.06-.34,2.06l-1.87.16v1.85s-2.21,0-2.21,0v2.22s-2.21,0-2.21,0v4.06s1.85,0,1.85,0v-1.85s2.21,0,2.21,0v-2.22s2.21,0,2.21,0v-2.22s1.84,0,1.84,0l.16-1.87,2.06-.34v-1.85ZM339.87,116.82h-5.9v1.84h5.9v-1.84ZM214.89,140.04h10.32v2.21h-18.8v1.84h5.71l.55,2.21h10.32v-2.21h8.29l.55,4.43h3.69s.6-2.16.6-2.16l7.87-.05.16-1.87h34.33s.16,1.87.16,1.87h5.9v-4.06s-2.21,0-2.21,0v-2.22s-2.21,0-2.21,0v-1.85s-1.84,0-1.84,0v-2.22s-4.08-.16-4.08-.16l-.56-2.06h-1.63s0,2.22,0,2.22h-38.34v-2.21s-2.21,0-2.21,0v-2.21s-6.63,0-6.63,0v-1.84h-7.93l-.55-2.21h-4.06s0-2.21,0-2.21h-6.27v-2.21s-2.21,0-2.21,0v-2.21s-10.69,0-10.69,0v-1.85s-1.85,0-1.85,0v4.06s-2.21,0-2.21,0v2.22s2.22,0,2.22,0v1.85s2.05.34,2.05.34l.16,1.87,2.05.34.16,1.87h1.85s0,2.21,0,2.21h4.43s0,1.84,0,1.84l4.08.16.34,2.05,7.87.05.61,2.16ZM212.32,120.87h-1.85v2.22h1.85v-2.22ZM267.61,127.51h-1.85v1.85h1.85v-1.85ZM123.47,133.78v65.44l-2.21.55-.34,2.05-1.87.16v12.54s-2.21,0-2.21,0v2.22s-4.05,0-4.05,0v14.75h1.85s0,2.21,0,2.21h2.21s0,16.96,0,16.96h-2.21s0,4.43,0,4.43h-1.85s-.16,1.87-.16,1.87l-2.06.34v4.06s-2.21,0-2.21,0v4.43s-2.21,0-2.21,0v6.27h-1.84s-.16,1.87-.16,1.87l-2.05.34v6.27h-2.21s0,4.43,0,4.43h-2.22s0,4.06,0,4.06h-1.85s0,2.21,0,2.21h-2.22s-.16,4.08-.16,4.08l-2.05.34v4.06s-2.21,0-2.21,0v2.22s-2.21,0-2.21,0v4.06s-1.84,0-1.84,0v2.22s-2.21,0-2.21,0v8.48h2.21s0,2.21,0,2.21h1.29s.18-2.22.18-2.22h2.21s0-6.08,0-6.08l.55-.55h6.08v-1.85s-4.43,0-4.43,0v-2.22s2.22,0,2.22,0v-2.21s8.48,0,8.48,0v-1.84h-6.27v-2.21s4.06,0,4.06,0v-2.22s2.21,0,2.21,0v-1.85s-1.87-.16-1.87-.16v-2.26s1.87-.16,1.87-.16v-1.85s4.06,0,4.06,0v-2.22s-1.85,0-1.85,0v-4.43h6.27v-1.84s-2.16-.6-2.16-.6l-.05-3.82h6.27v-1.85s-4.06,0-4.06,0v-4.43h25.81v2.21s-4.06,0-4.06,0l-.55,2.21h-7.93v1.84h14.75v2.21s-4.43,0-4.43,0v2.21s-6.27,0-6.27,0v1.84h10.14l.55,2.21h-4.43s0,2.21,0,2.21h-10.32v2.21h8.48v1.85s4.06,0,4.06,0v2.58h-12.54v1.84h8.48v2.21s4.06,0,4.06,0v2.21h-25.44v1.84h23.23v2.21s4.43,0,4.43,0v2.21h-32.08v1.84h27.65v2.21s3.82.05,3.82.05l.61,2.16h-4.43s0,4.43,0,4.43h4.43s-.61,2.16-.61,2.16l-3.82.05v4.06s4.43.21,4.43.21v2s-4.43,0-4.43,0v2.21s-8.48,0-8.48,0v1.84h8.48v2.21h-8.48v2.21s-1.85,0-1.85,0v1.63s1.85.21,1.85.21v2.58s-1.85,0-1.85,0v14.75h4.06s0,1.84,0,1.84h23.04l.55,2.21h10.32v2.21h-33.92v4.06h29.31l.59,1.29-.59,1.29h-27.1v1.84h12.53v2.21s2.21,0,2.21,0v2.21h-6.27v1.84h6.27v12.9h-4.06s0,2.21,0,2.21h-2.22s-.16,4.08-.16,4.08l-2.05.34v6.27h-2.21s0,4.06,0,4.06h2.22s0,4.42,0,4.42h2.21s0,6.27,0,6.27h2.21s0,2.21,0,2.21h10.32v-2.21h14.75v-1.84h-10.14l-.59-1.29.59-1.29h10.14v-1.84h27.65v-2.21h-27.65v-2.21h16.96l.34-2.05,4.29.19.16,1.87h8.11v-2.21h6.27v-1.84h-8.48v-4.42h21.38v-1.85s-2.21,0-2.21,0v-2.21s-1.87-.16-1.87-.16l-.34-2.05h8.48v-4.06s-2.05-.34-2.05-.34l.39-2.24h6.08v-4.06s-2.21,0-2.21,0v-2s2.22-.21,2.22-.21v-2.21s12.53,0,12.53,0v-1.84h-14.75v-2.21s4.06,0,4.06,0v-2.21s23.59,0,23.59,0v-1.84h-27.65v-2.58h6.27v-1.84h21.38v-2.21h-32.07l.61-2.16,7.87-.05.55-2.21h23.04v-1.84h-32.07v-2.21h6.64v-2.21h16.96v-1.84h-25.44v-2.21h6.27v-2.21h14.75v-2.21h-14.75v-1.84h-10.14l-.59-1.29.59-1.29h20.83v-1.84h-15.12v-2.21h-6.27l.55-2.21h12.35v-1.84h-10.69v-2.21h-8.48v-2.21h8.48v-2.21s4.06,0,4.06,0v-1.85h-44.06l-.55-2.21h34.29v-2.21h8.48v-2.21h-36.13v-2.21h25.44v-2.21h6.27v-1.84h-16.96v-2.21h6.27l.55-2.21h6.08v-1.84h-12.9v-2.21s4.06,0,4.06,0v-2.21s10.69,0,10.69,0v-1.84h-14.75v-2.58h10.69v-1.84h6.27v-2.21h-6.27v-2.21h-10.69v-2.21h16.96v-1.84h-6.27v-2.21h-15.12v-2.21h23.59v-1.84h-6.27v-2.21s-2.21,0-2.21,0v-2.21h16.96v-2.21h6.27v-1.84h-27.1l-.59-1.29.59-1.29h6.08v-1.84h23.23v-2.21h-12.9v-2.21h8.48l.34-2.05,1.87-.16v-1.84h-31.71v-2.21h6.27v-2.21h21.38v-1.84h-33.73l-.59-1.29.59-1.29h14.56v-1.84h25.44v-2.21h-33.92v-2.21h10.69v-2.21h23.23v-1.84h-25.44v-4.42h19.17v-1.84h-10.69v-2.21h-8.48v-2.21h16.96v-4.06s-4.06,0-4.06,0l-.21,1.85h-4.21s0-1.85,0-1.85h-6.27v-2.58h12.53v-1.85s2.21,0,2.21,0v-2.22s2.37,0,2.37,0l.21,2.22h1.85s0,1.84,0,1.84h50.88v-1.84h-23.59v-2.21s-1.29,0-1.29,0l-.19,2.21h-17.33v-2.21s-2.21,0-2.21,0v-2.21h6.27l.16-1.87h12.95s.16,1.87.16,1.87h1.28s.35-1.87.35-1.87l4.63-.35v2.22s1.84,0,1.84,0v-2.21s6.27,0,6.27,0v-1.84h-36.13v-2.21h10.69v-2.21s4.21,0,4.21,0l.21,2.22h10.32v-2.21h15.12v-1.84h-16.77l-.39-2.24,2.06-.34v-1.85s2.21,0,2.21,0v-2.22s-4.43,0-4.43,0l.16-1.87,2.05-.35.16-1.87,6.24-.29.61,2.16h5.9v-4.06h-6.27v-2.21s-3.84,0-3.84,0l-.21,2.22h-15.12v-2.21s4.06,0,4.06,0l.6-2.16h3.58s.61,2.16.61,2.16h1.47s0-4.06,0-4.06h-1.85s0-2.21,0-2.21h-1.85s-.05,1.6-.05,1.6l-2.37.27-.16-4.08h-2.22s0-2.21,0-2.21h-1.85s0-1.84,0-1.84h-2.22s0-2.21,0-2.21l-2.05-.34-.16-4.08h-2.22s0-4.06,0-4.06h-1.85s0-2.21,0-2.21h-44.98v-2.21h42.76v-6.27h-1.85s0,2.21,0,2.21h-25.81v-2.21h6.27v-2.21h8.48v-2.21h-29.86l.55-2.21h6.08v-2.21h8.48v-1.84h-19.17v-2.21s2.21,0,2.21,0v-2.22s1.84,0,1.84,0v-1.85h-12.17v1.84s2.16.6,2.16.6l.05,3.82h-2.58s-.21-2.22-.21-2.22h-1.63s0,2.22,0,2.22h-25.81v-4.06s-4.08-.16-4.08-.16l-.56-2.06h-1.63s0,2.22,0,2.22h-6.08l-.55-2.21-2.05-.35-.16-4.08h-1.85s0-1.84,0-1.84h-1.85s0,1.85,0,1.85h-2.22s0,2.21,0,2.21h-4.06ZM325.13,129.72h-1.85v1.85h1.85v-1.85ZM339.87,129.72h-5.9v1.84h5.9v-1.84ZM350.56,129.72h-1.85v1.85h1.85v-1.85ZM365.31,129.72h-3.69v1.85h3.69v-1.85ZM190.93,131.56h-1.85v2.22h1.85v-2.22ZM342.08,131.56h-1.85v2.22h1.85v-2.22ZM193.15,133.78h-1.85v1.85h1.85v-1.85ZM195.36,135.99h-1.85v1.85h1.85v-1.85ZM342.08,135.99h-8.11v1.85s1.85,0,1.85,0v2.22s3.84,0,3.84,0l.55-2.06,1.87-.16v-1.84ZM361.25,135.99h-4.06v1.85h4.06v-1.85ZM206.05,138.2h-4.06v1.85h4.06v-1.85ZM354.62,142.25h-3.69s0,4.06,0,4.06h1.85s0-2.22,0-2.22h1.85s0-1.84,0-1.84ZM231.48,148.52h-10.32v2.21s4.06,0,4.06,0v2.22s3.84,0,3.84,0l.21-2.22h2.22s0-2.21,0-2.21ZM286.78,148.52h-35.76v2.21h-6.64v2.21h44.61v-2.21s-2.21,0-2.21,0v-2.21ZM333.6,148.52h-4.06v2.22h4.06v-2.22ZM335.81,152.95h14.75v-2.21s-2.21,0-2.21,0v-2.22s-10.11,0-10.11,0l-.21,2.22h-2.22s0,2.21,0,2.21ZM237.75,150.73h-1.85v2.22h1.85v-2.22ZM290.84,155.16h-52.72v2.21s-2.21,0-2.21,0v1.85s4.43,0,4.43,0v4.06s2.05.34,2.05.34l.16,1.87h1.85s0,2.21,0,2.21h2.22s0,2.21,0,2.21h2.22s0,4.05,0,4.05l2.06.34.16,1.87h1.85s0,2.21,0,2.21h2.22s0,2.21,0,2.21h2.22s0,1.84,0,1.84l1.87.16.34,2.06,7.87.05.6,2.16h11.96s.55-2.05.55-2.05l4.45-.16v2.21s6.27,0,6.27,0v2.21h6.27v-2.21h6.27v-4.43s4.06,0,4.06,0v-1.85s6.63,0,6.63,0v-2.21s4.06,0,4.06,0v-2.21h-6.27v-1.84h-6.27v-2.21s-2.21,0-2.21,0v-2.22s-2.21,0-2.21,0v-2.22s-4.06,0-4.06,0v-4.06s-2.21,0-2.21,0v-2.22s-4.42,0-4.42,0v-2.22s2.22,0,2.22,0v-1.63s-2.06-.55-2.06-.55l-.16-1.87ZM356.83,155.16h-21.01v4.06s2.21,0,2.21,0v2s-2.22.21-2.22.21v4.06s4.43,0,4.43,0v2.22s-2.22.21-2.22.21v3.84s2.22,0,2.22,0v8.85h2.21s0,4.06,0,4.06l1.87.16.34,2.06h4.06s0,2.21,0,2.21h2.22s0,1.84,0,1.84h4.06s0,2.21,0,2.21h2.22s0,2.21,0,2.21h2.22s0,2.21,0,2.21h2.22s0,1.84,0,1.84h14.38v-1.85s4.43,0,4.43,0v-2.21h-12.91l.35-2.05,4.08-.16v-2.22s2.21,0,2.21,0v2.21s6.27,0,6.27,0v-4.06h-17.33v-2.21h12.9l.34-2.05,1.87-.16v-1.84h-6.27v-2.21s1.85,0,1.85,0v-4.43s-1.85,0-1.85,0v-1.85s-2.21,0-2.21,0v-4.43s-2.21,0-2.21,0v-2.21s-23.22,0-23.22,0v-2.21h18.8v-1.85s-1.85,0-1.85,0v-2.22s-2.21,0-2.21,0v-4.06s-1.87-.16-1.87-.16l-.34-2.05ZM376,157.37h-3.69v1.85h3.69v-1.85ZM242.18,169.9h-1.85v1.85h1.85v-1.85ZM320.7,182.81h-8.11v2.21h-6.27v1.84h8.11v-2.21h6.27v-1.84ZM321.07,186.86h8.48v2.21h-8.85v-2.21s-3.69,0-3.69,0v2.22s-4.42,0-4.42,0v2.21s-6.27,0-6.27,0v1.84h33.92v2.21h-40.55v2.21s2.21,0,2.21,0v1.85s48.48,0,48.48,0l.59,1.29-.59,1.29h-42.21v1.85s4.43,0,4.43,0v2.21s10.69,0,10.69,0v2.21h-6.27v4.06h10.32v2.21s-4.06,0-4.06,0v2.22s2.22,0,2.22,0v1.85s4.06,0,4.06,0v4.43s4.42,0,4.42,0v2.22s1.84,0,1.84,0v4.06s8.29,0,8.29,0l.55,2.21h10.32v2.21h6.27v-2.21h16.96v-1.84h-6.27v-2.21h-12.9v-2.21h16.96v-2.21s-2.21,0-2.21,0v-1.85s-1.47,0-1.47,0l-.21,1.85h-2.37s0-1.85,0-1.85h-14.56l-.59-1.29.59-1.29h16.77v-1.85s-4.43,0-4.43,0v-2.21s-27.65,0-27.65,0l.55-2.21h24.88v-1.84s-1.87-.16-1.87-.16l-.34-2.05h-33.92v-2.21h32.07v-2.21s-2.21,0-2.21,0v-1.85s-6.27,0-6.27,0v-2.58s1.85,0,1.85,0v-4.06h-12.54v-2.21s4.06,0,4.06,0v-1.85s-1.85,0-1.85,0v-2.21s-6.63,0-6.63,0v-2.21s-1.63,0-1.63,0l-.21,2.22h-4.43s0-2.22,0-2.22h4.06s0-1.84,0-1.84h-5.71l-.55-2.21h-5.9s-.34,2.06-.34,2.06l-1.87.16v1.84ZM265.4,195.34h-5.9v2.21s2.21,0,2.21,0v1.85s3.47,0,3.47,0l.21-4.06ZM282.36,195.34h-10.32v2.21s4.43,0,4.43,0v1.85s8.11,0,8.11,0v-1.85s-2.21,0-2.21,0v-2.21ZM293.05,195.34h-8.11v2.21s4.43,0,4.43,0v1.85s3.47,0,3.47,0l.21-4.06ZM299.32,201.98h-8.11v1.85s2.21,0,2.21,0v2.21s5.9,0,5.9,0v-4.06ZM382.27,201.98h-20.64v1.85s4.06,0,4.06,0v2.21s14.74,0,14.74,0v-2.21s1.85,0,1.85,0v-1.85ZM389.27,208.25v6.27h-2.21s0,2.21,0,2.21h-6.64v-2.21s-4.06,0-4.06,0v4.06h10.14l.39,2.24-4.27.34v1.85s-2.21,0-2.21,0v-1.85s-1.84,0-1.84,0v4.06s4.06,0,4.06,0v4.43s-1.85,0-1.85,0v1.63s1.85.21,1.85.21v2.22s-1.85,0-1.85,0v2.21s-17.32,0-17.32,0v1.84h6.08l.55,2.21h5.9l.34-2.05h1.9s.34,2.05.34,2.05l2.05.35.16,1.87h-21.38v2.21s2.21,0,2.21,0v1.85s10.32,0,10.32,0v-1.84h10.69v1.85s4.26.34,4.26.34l-.39,2.24h-12.35v1.84h15.12v2.21h5.9l.21-2.22h2.37s0,2.22,0,2.22h6.27v2.21h-16.96v4.06h8.11l.16-1.87h2.26s.16,1.87.16,1.87h6.27v2.21h-6.27v2.21s-2.37,0-2.37,0l-.21-2.22h-10.32v4.06h16.96v2.58h-8.48v1.85s-2.37,0-2.37,0l-.21-1.85h-3.69s0,4.06,0,4.06h8.48v4.43s-4.43,0-4.43,0v1.85h6.64l-.05,3.82-2.16.6v1.84h27.28v-1.85s-4.08-.16-4.08-.16l-.34-2.05h-3.69s-.34,2.05-.34,2.05l-3.84.11-.6-2.16h-4.06s0-2.21,0-2.21h14.75v-4.06h-10.14l-.55-2.21h10.69v-2.21s2.21,0,2.21,0v-1.85s-1.87-.16-1.87-.16l-.34-2.05-1.87-.16-.34-2.06h-1.85s0-2.21,0-2.21h-8.48v-2.21s1.85,0,1.85,0v-3.84s-1.85-.21-1.85-.21v-2.22s1.85,0,1.85,0v-2.22s2.21,0,2.21,0v-1.85s-4.06,0-4.06,0v-2.58s1.85,0,1.85,0v-1.85s2.21,0,2.21,0v-2.22s-2.22,0-2.22,0l.35-4.27,1.87-.16v-1.85s-2.21,0-2.21,0v-8.48h-3.69s-.16,1.87-.16,1.87l-1.82.3-.6-4.38h6.27v-2.21s-1.85,0-1.85,0v-1.85s-1.84,0-1.84,0l-.21,1.85h-2.37s0-1.85,0-1.85h-6.27v-2.58h8.48v-1.85s-2.21,0-2.21,0v-2.22s-1.84,0-1.84,0l-.21,2.22h-4.21s0-2.22,0-2.22h-4.43s.35-2.05.35-2.05l4.08-.16v-4.06s-2.22,0-2.22,0v-2s2.22-.21,2.22-.21v-4.06s-4.06,0-4.06,0v1.85s-2.21,0-2.21,0v2.22s2.22,0,2.22,0v2.22s-4.06,0-4.06,0ZM303.74,208.25h-10.32v1.85s4.08.16,4.08.16l.34,2.05h5.9v-4.06ZM382.27,208.25h-12.17v4.06h12.17v-4.06ZM310.01,210.46h-1.85v1.85h1.85v-1.85ZM305.96,214.51h-1.85v2.22h1.85v-2.22ZM303.74,216.73h-8.11v1.84h8.11v-1.84ZM314.43,216.72h-4.06v1.85h4.06v-1.85ZM233.7,221.15h-8.48v1.85s2.21,0,2.21,0v2.21s34.28,0,34.28,0l-.55,2.21h-16.77l-.21,2.22h-4.21s0-2.22,0-2.22h-10.32v4.06h32.07v4.43s1.85,0,1.85,0v4.21s-1.85.21-1.85.21v1.85s1.85,0,1.85,0v6.27h1.84v-14.75h-2.21s0-2.21,0-2.21h15.12v-1.84h-6.08l-.55-2.21-5.66-.05-.61-2.16h10.69v-2.21h-6.27v-1.84h-25.44v1.84h-10.69v-1.84ZM316.65,221.15h-1.85v1.85h1.85v-1.85ZM322.91,221.15h-4.06v1.85h4.06v-1.85ZM310.01,222.99h-5.9v2.21h5.9v-2.21ZM276.46,248.8v14.75h2.21s0,1.84,0,1.84h8.11v-12.53h2.21v-6.64h1.85s0-1.85,0-1.85h2.22s0-2.21,0-2.21h4.43s0-2.21,0-2.21h4.06s.34-2.05.34-2.05l4.4.45.05,3.82h-2.22s0,4.06,0,4.06h3.69s0-1.85,0-1.85h2.37s.21,1.85.21,1.85h4.06s0-4.06,0-4.06h2.58s0,2.22,0,2.22h1.85s0,1.84,0,1.84l6.03.05.6,2.16h1.84s0,6.27,0,6.27h2.21v10.69l1.87.16.34,16.25-.61.87-3.82.05v1.85s2.22,0,2.22,0v2.22s-2.22,0-2.22,0v2.22s-1.84,0-1.84,0v4.06s1.48,0,1.48,0v-1.85s4.43,0,4.43,0v-2.22s2.21,0,2.21,0v-4.43s1.84,0,1.84,0v-12.53h-1.84v-16.96h-2.21v-6.27l-2.05-.34-.16-4.08h-2.22s0-2.21,0-2.21h-1.85s0-1.84,0-1.84l-4.08-.16-.35-2.05-2.05-.34-.16-1.87h-4.06s0-2.21,0-2.21h-4.43s0-2.21,0-2.21h2.22s0-1.84,0-1.84h-8.11v1.85s-2.21,0-2.21,0v2.22s-2.58,0-2.58,0v-2.22s2.22,0,2.22,0v-1.85s-3.69,0-3.69,0v1.85s-4.42,0-4.42,0v2.22s-4.06,0-4.06,0v2.22s-2.21,0-2.21,0l-.34,2.05-4.08.16v2.22s-2.21,0-2.21,0v4.06s-1.84,0-1.84,0l-.16,4.08-2.05.34ZM333.6,229.63h-1.85v1.85h1.85v-1.85ZM346.51,237.74h6.08l.55,2.21h9.95v-1.85s-1.85,0-1.85,0v-2.21s-12.9,0-12.9,0v-2.21s-1.85,0-1.85,0v4.06ZM259.13,235.9h-23.23v1.85s2.21,0,2.21,0v2.22s4.37.6,4.37.6l.05,3.82h-4.8s0-2.21,0-2.21h-5.9v2.21s4.06,0,4.06,0v2.22s-1.85,0-1.85,0v14.75h-2.21v6.08l-2.21.55v4.06s-2.21,0-2.21,0l.22,1.85h3.84s0-1.85,0-1.85h6.27v-4.06s-2.05-.34-2.05-.34l-.16-4.08h6.64v-4.43s1.84,0,1.84,0v-8.48h4.79v8.48h1.84v-6.27h1.85s0-2.21,0-2.21h2.58v8.48h-2.21s0,2.21,0,2.21h-1.85s0,2.21,0,2.21h5.9v-4.43s2.21,0,2.21,0v-2.22s2.21,0,2.21,0v-4.06s-2.22,0-2.22,0v-4.06s-1.6-.05-1.6-.05l-.27-2.37,1.87-.16v-4.06s-4.43,0-4.43,0v-1.85s-2.17-.6-2.17-.6l.51-1.98h6.08v-1.84ZM278.3,235.9h-10.32v1.84h10.32v-1.84ZM278.3,242.16h-6.27v2.21h6.27v-2.21ZM348.35,242.16h-3.69s0,2.22,0,2.22h1.85s0,1.84,0,1.84h1.85s0-4.06,0-4.06ZM263.19,248.8h-1.47v4.06h1.47v-4.06ZM316.64,248.8h-16.96v1.85s4.43,0,4.43,0v2.22s1.84,0,1.84,0l.21-2.22h4.21s0,2.22,0,2.22h6.27v-4.06ZM371.94,248.8h-21.01v1.85s2.21,0,2.21,0v2.22s16.37,0,16.37,0l.21-2.22h2.22s0-1.84,0-1.84ZM301.9,259.12h14.75v-1.85s-2.21,0-2.21,0v-2.22s-10.11,0-10.11,0l-.55,2.06-1.87.16v1.84ZM326.97,255.07h-5.9v1.85s4.08.16,4.08.16l.53,2.06h1.29s0-4.06,0-4.06ZM382.27,255.07h-31.34l-.34,2.05-1.87.16v1.85s4.43,0,4.43,0v2.21h-6.64v4.06h6.08l.59,1.29-.59,1.29h-6.08v1.85s2.21,0,2.21,0v2.21s12.9,0,12.9,0l-.55,2.21h-7.93v4.06h23.23v2.21s-4.06,0-4.06,0l-.55,2.21h-6.08v1.85s4.08.16,4.08.16l.34,2.05h4.06s0,4.42,0,4.42h10.32v-2.21s-2.21,0-2.21,0l.35-4.27,1.87-.16v-1.84s-2.05-.34-2.05-.34l-.16-1.87h-1.85s0-2.21,0-2.21h6.27v-1.84h-6.27v-2.21h-12.35l-.55-2.21h16.96v-2.21s-2.21,0-2.21,0v-1.85s-21.01,0-21.01,0v-2.58h21.01v-4.06h-27.65v-2.21h25.81v-2.21s1.85,0,1.85,0v-1.85ZM248.44,259.12h-1.85s0,4.43,0,4.43h-2.21s0,8.48,0,8.48h1.84v-6.08l2.21-.55v-6.27ZM322.91,261.33h-21.01v2.21s4.43,0,4.43,0v1.85s20.64,0,20.64,0v-1.85s-4.06,0-4.06,0v-2.21ZM293.05,265.76h-5.9l-.16,1.87-2.06.55v1.63s2.23,0,2.23,0v2.21s5.9,0,5.9,0v-2.21s-2.21,0-2.21,0l.35-2.05,1.87-.16v-1.84ZM282.36,267.97h-5.9v1.85s2.21,0,2.21,0v2.21s5.9,0,5.9,0v-2.21s-2.21,0-2.21,0v-1.85ZM326.97,267.97h-16.59v4.06h16.59v-4.06ZM322.91,274.24h-8.11l-.34,2.05-1.87.16v4.06s-2.21,0-2.21,0v2.21s-10.69,0-10.69,0v1.84h6.08l.56,4.43h-2.22s0,2.21,0,2.21h2.22s-.16,1.86-.16,1.86l-2.05.35-.61,2.16-5.66.05v1.85s-2.21,0-2.21,0v2.21h5.9v-2.21h10.69v-1.85s-4.26-.34-4.26-.34l.39-2.24h6.08v-1.85s4.06,0,4.06,0v-2.22s-1.85,0-1.85,0v-4.43s4.06,0,4.06,0v-1.85s-2.06-.34-2.06-.34l-.16-1.87h-1.85s0-2.21,0-2.21h6.27v-4.06ZM276.09,276.45h-14.38v1.84h14.38v-1.84ZM282.36,276.45h-1.85v1.85h1.85v-1.85ZM297.48,276.45h-1.85v1.85h1.85v-1.85ZM278.3,282.72h-23.23v1.84h23.23v-1.84ZM414.34,286.77h-16.59v2.21h-6.64v2.21h6.64v1.85s4.06,0,4.06,0v4.43s4.42,0,4.42,0v2.22s3.69,0,3.69,0v-2.22s4.42,0,4.42,0v-1.85h-8.48v-2.58h6.27v-1.84h6.27v-2.21s-4.06,0-4.06,0v-2.21ZM280.15,288.98h-31.34v2.21h25.44v1.85s1.85,0,1.85,0v-1.85s4.06,0,4.06,0v-2.21ZM280.15,295.62h-35.76v1.84h35.76v-1.84ZM326.97,295.62h-5.9l.21,4.06h3.84s0-2.22,0-2.22h1.85s0-1.84,0-1.84ZM278.3,301.89h-31.7v1.84h31.7v-1.84ZM307.8,301.89h-16.59v2.21s-4.06,0-4.06,0v1.85s2.22.21,2.22.21v2s-2.22,0-2.22,0v4.06h6.27v2.21h-6.27v4.42h12.53v2.21h-12.53v4.06h6.27v2.21s-4.06,0-4.06,0v1.85h8.11v-4.06h10.32l.34-2.05,1.87-.16v-1.84h-6.27v-2.21h8.48v-2.21s2.21,0,2.21,0v-2.21h-16.96v-2.21h19.17v-4.06h-8.48l-.21,2.22h-4.21s0-2.22,0-2.22h-10.69v-2.21h12.9v-2.21s1.85,0,1.85,0v-1.85ZM322.91,301.89h-5.9v4.06s1.29,0,1.29,0l.53-2.06,4.08-.16v-1.85ZM276.09,308.15h-27.28v1.84h27.28v-1.84ZM276.09,314.42h-31.7v2.21h31.7v-2.21ZM276.09,321.06h-31.7v1.84h31.7v-1.84ZM254.71,329.54h-14.38v1.84h14.38v-1.84ZM273.88,329.54h-14.38v1.84h14.38v-1.84ZM269.82,335.8h-8.11v1.84h8.11v-1.84ZM329.18,335.8h-12.17v1.84h12.17v-1.84ZM337.66,335.8h-5.9v1.84h5.9v-1.84ZM333.6,342.07h-18.8v2.21s2.21,0,2.21,0v2.22s1.47,0,1.47,0v-2.21h15.12v-2.21ZM333.6,348.71h-21.01v1.84h21.01v-1.84ZM316.65,354.97h-4.06v1.85h4.06v-1.85ZM325.12,354.97h-6.27v1.84h6.27v-1.84ZM316.64,361.24h-8.48v2.21s-1.85,0-1.85,0v1.85h5.9v-1.85s4.43,0,4.43,0v-2.21ZM312.22,367.88h-8.11v1.85s-2.21,0-2.21,0v2.21h5.9v-2.21s4.43,0,4.43,0v-1.85ZM242.18,374.14h-1.85v1.85h1.85v-1.85ZM293.42,378.2h12.53v-1.85s-2.21,0-2.21,0v-2.22s-7.9,0-7.9,0l-.55,2.06-1.87.16v1.84ZM289.36,382.62h-6.64v1.84h23.23v-1.85s-4.43,0-4.43,0v-2.21s-5.9,0-5.9,0v2.21s-2.37,0-2.37,0l-.21-2.22h-3.69s0,2.21,0,2.21ZM299.32,387.05h-12.17v1.84h-6.64v2.21h23.23v-2.21s-4.43,0-4.43,0v-1.85ZM297.47,393.31h-10.32l-.55,2.21h-10.14v1.84h12.9v2.21s1.29,0,1.29,0l.19-2.21h15.12v-1.84h-8.48v-2.21ZM261.35,401.79h-1.85v1.85h1.85v-1.85ZM299.32,401.79h-35.76v1.84h14.56l.55,2.21h8.11v-2.21s2.24.16,2.24.16l.34,2.05h1.85s0,2.21,0,2.21h-42.4v2.21h21.38v1.84h18.62l.59,1.29-.59,1.29h-44.42v1.85s2.21,0,2.21,0v2.21s14.74,0,14.74,0v-2.21s4.21,0,4.21,0l.21,2.22h31.7v-2.21s1.85,0,1.85,0v-1.85h-5.72l-.59-1.29.59-1.29h5.71v-4.06h-6.27l.35-2.05,4.08-.16v-2.22s1.84,0,1.84,0v-1.85ZM326.97,401.79h-5.9v1.84h5.9v-1.84ZM326.97,408.06h-8.11v2.21s2.21,0,2.21,0l.21,1.85h3.84s0-1.85,0-1.85h1.85s0-2.21,0-2.21ZM326.97,414.7h-12.17v1.85s2.21,0,2.21,0v2.22s7.89,0,7.89,0l.21-2.22h1.85s0-1.84,0-1.84ZM297.47,420.96h-61.57v4.06h61.57v-4.06ZM325.12,420.96h-12.53v4.06h12.53v-4.06ZM224.85,427.23h-14.38v2.21h-10.69v1.84h46.82v2.58h-49.03v4.06s2.21,0,2.21,0v2s-2.22.21-2.22.21v1.85s2.21,0,2.21,0v8.48h2.21s0,2.21,0,2.21h8.48v2.21s4.43,0,4.43,0v2.21s75.94,0,75.94,0v-2.21h6.64v-2.21s1.84,0,1.84,0l.34-2.05,2.24-.16v2.22s1.84,0,1.84,0v-2.21s8.48,0,8.48,0l.55-2.21h5.71v-1.84h-29.49v-2.21h42.4v-2.21s4.06,0,4.06,0v-1.85h-27.28v2.21h-8.29l-.55-2.21-16.8-.34-.16-1.87h16.96v-4.06h-48.66v-2.58h46.82v-4.06h-65.62v2.21h-7v-2.21ZM306.32,431.29h20.64v-1.85s-1.85,0-1.85,0v-2.22s-16.74,0-16.74,0l-.21,2.22h-1.85s0,1.84,0,1.84ZM344.3,429.44h-4.06v1.85h4.06v-1.85ZM326.97,433.87h-20.64v1.85s-2.21,0-2.21,0v2.21h42.03v-2.21s2.21,0,2.21,0v-1.85h-12.54v1.85s-2.21,0-2.21,0v-1.85s-1.63,0-1.63,0l-.21,1.85h-4.58s-.21-1.85-.21-1.85Z"/>
    <path fill="#fff" d="M123.47,133.78h4.06s0-2.21,0-2.21h2.22s0-1.84,0-1.84h1.85s0,1.85,0,1.85h1.85s.16,4.08.16,4.08l2.05.35.55,2.21h6.08v-2.21s1.63,0,1.63,0l.56,2.06,4.08.16v4.06s25.8,0,25.8,0v-2.21s1.63,0,1.63,0l.21,2.22h2.58s-.05-3.82-.05-3.82l-2.16-.6v-1.84h12.17v1.85s-1.85,0-1.85,0v2.22s-2.21,0-2.21,0v2.21h19.17v1.84h-8.48v2.21h-6.08l-.55,2.21h29.86v2.21h-8.48v2.21h-6.27v2.21h25.81v-2.21s1.84,0,1.84,0v6.27h-42.76v2.21h44.98v2.21s1.85,0,1.85,0v4.06s2.21,0,2.21,0l.16,4.08,2.05.34v2.21s2.21,0,2.21,0v1.85s1.84,0,1.84,0v2.22s2.21,0,2.21,0l.16,4.08,2.37-.27.05-1.6h1.85s0,2.22,0,2.22h1.85s0,4.05,0,4.05h-1.47s-.61-2.16-.61-2.16h-3.58s-.6,2.16-.6,2.16h-4.06s0,2.21,0,2.21h15.12l.21-2.22h3.84s0,2.22,0,2.22h6.27v4.06h-5.9l-.61-2.16-6.24.29-.16,1.87-2.05.35-.16,1.87h4.43s0,2.21,0,2.21h-2.22s0,1.84,0,1.84l-2.06.34.39,2.24h16.77v1.84h-15.12v2.21h-10.32l-.21-2.22h-4.21s0,2.22,0,2.22h-10.69v2.21h36.13v1.84h-6.27v2.21s-1.85,0-1.85,0v-2.22s-4.63.35-4.63.35l-.35,1.87h-1.28s-.16-1.87-.16-1.87h-12.95s-.16,1.87-.16,1.87h-6.27v2.21s2.21,0,2.21,0v2.21s17.33,0,17.33,0l.19-2.21h1.29s0,2.21,0,2.21h23.59v1.84h-50.88v-1.85s-1.85,0-1.85,0l-.21-2.22h-2.37s0,2.22,0,2.22h-2.22s0,1.84,0,1.84h-12.53v2.58h6.27v1.85s4.21,0,4.21,0l.21-1.85h4.06s0,4.06,0,4.06h-16.96v2.21h8.48v2.21h10.69v1.84h-19.17v4.42h25.44v1.84h-23.23v2.21h-10.69v2.21h33.92v2.21h-25.44v1.84h-14.56l-.59,1.29.59,1.29h33.73v1.84h-21.38v2.21h-6.27v2.21h31.7v1.84s-1.87.16-1.87.16l-.34,2.05h-8.48v2.21h12.9v2.21h-23.23v1.84h-6.08l-.59,1.29.59,1.29h27.1v1.84h-6.27v2.21h-16.96v2.21s2.21,0,2.21,0v2.21s6.27,0,6.27,0v1.84h-23.59v2.21h15.12v2.21h6.27v1.84h-16.96v2.21h10.69v2.21h6.27v2.21h-6.27v1.84h-10.69v2.58h14.75v1.84h-10.69v2.21s-4.06,0-4.06,0v2.21h12.91v1.84h-6.08l-.55,2.21h-6.27v2.21h16.96v1.84h-6.27v2.21h-25.44v2.21h36.13v2.21h-8.48v2.21h-34.29l.55,2.21h44.05v1.85s-4.06,0-4.06,0v2.21s-8.48,0-8.48,0v2.21h8.48v2.21h10.69v1.84h-12.35l-.55,2.21h6.27v2.21h15.12v1.84h-20.83l-.59,1.29.59,1.29h10.14v1.84h14.75v2.21h-14.75v2.21h-6.27v2.21h25.44v1.84h-16.96v2.21h-6.64v2.21h32.07v1.84h-23.04l-.55,2.21-7.87.05-.61,2.16h32.07v2.21h-21.38v1.84h-6.27v2.58h27.65v1.84h-23.59v2.21s-4.06,0-4.06,0v2.21h14.75v1.84h-12.53v2.21s-2.22.21-2.22.21v2s2.22,0,2.22,0v4.06h-6.08l-.39,2.24,2.06.34v4.06h-8.48l.34,2.05,1.87.16v2.21s2.21,0,2.21,0v1.85h-21.38v4.42h8.48v1.84h-6.27v2.21h-8.11l-.16-1.87-4.29-.19-.34,2.05h-16.96v2.21h27.65v2.21h-27.65v1.84h-10.14l-.59,1.29.59,1.29h10.14v1.84h-14.75v2.21h-10.32v-2.21s-2.21,0-2.21,0v-6.27h-2.21s0-4.43,0-4.43h-2.22s0-4.06,0-4.06h2.21s0-6.27,0-6.27l2.05-.34.16-4.08h2.22s0-2.21,0-2.21h4.06s0-12.9,0-12.9h-6.27v-1.84h6.27v-2.21s-2.21,0-2.21,0v-2.21s-12.53,0-12.53,0v-1.84h27.1l.59-1.29-.59-1.29h-29.31v-4.06h33.92v-2.21h-10.32l-.55-2.21h-23.04v-1.85s-4.06,0-4.06,0v-14.75h1.85s0-2.58,0-2.58l-1.85-.21v-1.63s1.85,0,1.85,0v-2.21s8.48,0,8.48,0v-2.21h-8.48v-1.84h8.48v-2.21s4.43,0,4.43,0v-2s-4.43-.21-4.43-.21v-4.06s3.82-.05,3.82-.05l.61-2.16h-4.43s0-4.43,0-4.43h4.43s-.61-2.16-.61-2.16l-3.82-.05v-2.21s-27.65,0-27.65,0v-1.84h32.07v-2.21s-4.43,0-4.43,0v-2.21s-23.22,0-23.22,0v-1.84h25.44v-2.21s-4.06,0-4.06,0v-2.21s-8.48,0-8.48,0v-1.84h12.53v-2.58s-4.06,0-4.06,0v-1.85s-8.48,0-8.48,0v-2.21h10.32v-2.21s4.43,0,4.43,0l-.55-2.21h-10.14v-1.84h6.27v-2.21s4.43,0,4.43,0v-2.21h-14.75v-1.84h7.93l.55-2.21h4.06s0-2.21,0-2.21h-25.81v4.43s4.06,0,4.06,0v1.85h-6.27l.05,3.82,2.16.6v1.84h-6.27v4.43s1.85,0,1.85,0v2.22s-4.06,0-4.06,0v1.85s-1.86.16-1.86.16v2.26s1.87.16,1.87.16v1.85s-2.22,0-2.22,0v2.22s-4.06,0-4.06,0v2.21h6.27v1.84h-8.48v2.21s-2.21,0-2.21,0v2.22s4.43,0,4.43,0v1.85h-6.08l-.55.55v6.08h-2.21s-.18,2.21-.18,2.21h-1.29s0-2.22,0-2.22h-2.21s0-8.48,0-8.48h2.21s0-2.21,0-2.21h1.85s0-4.06,0-4.06h2.22s0-2.21,0-2.21h2.22s0-4.05,0-4.05l2.05-.34.16-4.08h2.22s0-2.21,0-2.21h1.85s0-4.06,0-4.06h2.22s0-4.42,0-4.42h2.21s0-6.27,0-6.27l2.05-.34.16-1.87h1.84s0-6.27,0-6.27h2.21s0-4.43,0-4.43h2.22s0-4.05,0-4.05l2.06-.34.16-1.87h1.85s0-4.42,0-4.42h2.21s0-16.96,0-16.96h-2.21s0-2.21,0-2.21h-1.85s0-14.74,0-14.74h4.06s0-2.21,0-2.21h2.22s0-12.53,0-12.53l1.87-.16.34-2.05,2.21-.55v-65.44ZM195.72,152.95h-7l.61,2.16,6.24-.29.16-1.87ZM229.64,165.48h-40.37l-.55,2.21h6.64v2.21h11.06v-2.21h20.64v2.21s2.58,0,2.58,0v-4.43ZM225.22,171.75h-35.94l-.59,1.29.59,1.29h16.77v6.27h-12.9v2.21h12.9v2.21s1.85,0,1.85,0v3.84s-1.85.21-1.85.21v2.22s1.85,0,1.85,0v4.06s2.21,0,2.21,0l.6,4.38,1.92-.56-.29-5.87-1.87-.16v-18.8h8.11v1.85s4.79,0,4.79,0v-1.85s1.84,0,1.84,0v-2.58ZM227.61,171.75l-.59,1.29.59,1.29h5.9l.59-1.29-.59-1.29h-5.9ZM223,180.6h-6.64l.16,1.87h23.64s.16-1.87.16-1.87h-8.48l-.21-2.22h-2.37s-.21,2.23-.21,2.23h-3.84s0-2.22,0-2.22h-2.22s0,2.21,0,2.21ZM220.79,189.08h8.85v-2.21s-4.43,0-4.43,0v-2.22s-2,0-2,0l-.21,2.22h-2.22s0,2.21,0,2.21ZM240.33,186.86h-6.64v2.21h6.64v-2.21ZM227.43,193.13h-4.43v2.22h4.43v-2.22ZM251.02,195.34l-.06-1.6-.49-.61h-16.77v2.21h17.33ZM238.3,199.4l-.59,1.29.59,1.29h12.17l.59-1.29-.59-1.29h-12.17ZM216.74,212.3h-10.69v2.21h10.69v-2.21ZM161.68,218.62l-.26,2.37,4.29-.18-.19-2.08-3.84-.11ZM140.42,225.2h-15.48l.05,3.82,2.16.6v1.84h-6.27v4.43s4.06.21,4.06.21v1.63s-1.85,0-1.85,0v2.22s-2.21,0-2.21,0v2.21h8.48v2.21s-4.43,0-4.43,0v1.85s-4.06,0-4.06,0v2.58h10.69v1.84h-8.48v2.21s-2.21,0-2.21,0v2.21h23.6v-6.27h2.21v-6.64h2.21s0-1.84,0-1.84l1.6-.05.27-2.37-1.87-.16v-3.84s2.22-.21,2.22-.21v-2.21h-12.91v-4.06s1.87-.16,1.87-.16l.34-2.05ZM174.34,225.2h-13.27l.06,1.6.49.61h12.72v-2.21ZM159.6,231.47l-.34-2.05-3.84-.11-.6,2.16h-2.21s0,2.21,0,2.21h17.33v-2.21h-10.32ZM180.61,233.68h-8.85v2.21h8.85v-2.21ZM176.55,239.95l-.16-1.87h-2.26s-.16,1.87-.16,1.87l-18.83.16-.35,2.05h2.22s0,2.21,0,2.21h4.06s.16,4.08.16,4.08l2.05.34v1.85s-4.06,0-4.06,0v6.27h-8.48v4.42h21.38v-2.21s-4.06,0-4.06,0l-.34-2.06-1.87-.16v-1.84h10.14l.55-2.21h-2.22s0-2.21,0-2.21h-8.48v-1.84h12.35l.39-2.24-2.06-.34v-4.06h12.54v-2.21h-12.53ZM136,256.91h-16.77l-.55,2.21h-4.43s0,2.21,0,2.21h28.02v-2.21h-6.27v-2.21ZM214.89,259.12h-7v2.21h7v-2.21ZM131.95,263.55h-15.48v1.84h-6.27v2.58h25.81v-2.58s-4.06,0-4.06,0v-1.85ZM199.78,272.02h-8.85l.06,1.6.49.61h8.29v-2.21ZM178.77,325.11l-.16-1.87-6.5-.19-.34,2.05h-8.48v2.21h6.27l.61,2.16,8.45-.29.16-1.87h10.32v-2.21h-10.32ZM189.09,331.38h-23.59v2.21s2.21,0,2.21,0v2.21s15.11,0,15.11,0v-2.21h6.27v-2.21ZM189.09,337.65h-27.47l-.59,1.29.59,1.29h10.14v1.84h13.27v-1.85s4.06,0,4.06,0v-2.58ZM185.03,344.28h-19.54v2.21s-4.43,0-4.43,0l.55,2.21h27.47v-2.21s-4.06,0-4.06,0v-2.21ZM184.48,350.55h-18.99v2.21s-4.43,0-4.43,0v2.21h10.69v1.84s-2.05.34-2.05.34l-.16,1.87h-1.85s0,2.21,0,2.21h6.27v2.21s-2.21,0-2.21,0v1.85s-4.06,0-4.06,0v2.58h10.69v1.85s-4.43,0-4.43,0v2.22s-2.21,0-2.21,0v2.21h6.64v1.85s-2.21,0-2.21,0v2.21s-1.87.16-1.87.16l-.35,2.05h4.43s0,2.21,0,2.21h1.85s0,1.84,0,1.84h-1.85s0,4.42,0,4.42h10.69v-1.85s2.21,0,2.21,0v-2.58h-6.27v-1.85s4.06,0,4.06,0v-2.22s2.21,0,2.21,0v-2.22s-2.22,0-2.22,0v-4.06s4.43,0,4.43,0v-2.22h-4.43s0-4.06,0-4.06h2.22s0-2.58,0-2.58h-2.22s0-1.84,0-1.84h-4.06s0-2.21,0-2.21h4.06s0-2.21,0-2.21h-4.06s-.34-2.05-.34-2.05l-4.08-.16v-1.85h8.48v-2.21s-4.06,0-4.06,0l-.55-2.21ZM191.3,391.1h-12.9v4.42h8.29l.55-2.21h4.06s0-2.21,0-2.21ZM189.09,397.37h-15.12v4.42h15.12v-4.42Z"/>
    <path fill="#fff" d="M165.86,57.1h2.21s0-1.85,0-1.85h1.29s.18,1.85.18,1.85h4.8s0-4.06,0-4.06h1.85s0,2.22,0,2.22h2.22s0,1.84,0,1.84h4.43s0-1.85,0-1.85h4.06s0,1.85,0,1.85h1.85s0,2.21,0,2.21h-8.48l.16,1.87,2.05.35.55,2.21h20.83v1.84h-10.69v4.42h19.17v10.32h-16.59v-1.84h-11.06v1.84h-12.53v-1.85s-4.43,0-4.43,0v4.43s4.06,0,4.06,0v1.85s4.42,0,4.42,0v2.21h-12.91l.55,2.21h20.83v6.27h2.21v6.64h1.84v5.71l2.21.55v4.06h-6.27v2.21h8.48v1.84s-1.87.16-1.87.16l-.34,2.06h-5.9s-.16-1.87-.16-1.87h-2.26s-.16,1.87-.16,1.87h-14.75v2.21s4.06,0,4.06,0v2.21s10.69,0,10.69,0v2.21h-6.27v2.21s2.21,0,2.21,0v2.22s4.06,0,4.06,0v1.85s-4.06,0-4.06,0v2.21s-6.27,0-6.27,0v-2.21s-2.21,0-2.21,0v-1.85s4.43,0,4.43,0v-2.58s-4.64.35-4.64.35l-.16,1.87h-1.85s0,4.42,0,4.42h1.85s.34,2.05.34,2.05l1.87.16.34,2.05,1.87.16v1.84h-8.11l-.55-2.21h-7.93v-1.84s1.87-.16,1.87-.16l.35-2.05h-2.22s0-2.21,0-2.21h-2.22s0-4.42,0-4.42h-2.22s0-1.84,0-1.84h-1.85s0-2.21,0-2.21h-2.22s0-2.21,0-2.21h4.06s0-4.06,0-4.06h4.06s0,2.22,0,2.22h2.22s0,1.84,0,1.84h1.85s0,2.21,0,2.21h4.8s0-2.22,0-2.22h-2.22s0-2.21,0-2.21h-4.06s0-1.84,0-1.84h16.41l.55-4.42h-15.48l-.19,2.21h-1.29s0-2.21,0-2.21h-8.48l-.16-1.87-2.05-.35-.55-2.21h-6.08v-1.84h-8.48v-2.21s-4.06,0-4.06,0l-.34-2.06-1.87-.16v-2.21s-2.21,0-2.21,0v-1.85s-1.84,0-1.84,0v-2.22s-2.21,0-2.21,0v-2.22s-2.21,0-2.21,0v-2.22s-2.21,0-2.21,0v-2.22s-2.21,0-2.21,0v-4.06s-1.84,0-1.84,0l-.16-1.87-2.06-.34v-4.06s-2.21,0-2.21,0v-4.43s-2.21,0-2.21,0v-1.85s2.22,0,2.22,0v-2.22s3.84,0,3.84,0l.21,2.22h6.27l.55,2.21h12.35v1.84h8.48v2.21h21.38v-2.21h-8.48v-2.21h-6.27v-2.21h-6.64v2.21s-1.84,0-1.84,0l-.34-2.06-1.87-.16v-1.85s-2.21,0-2.21,0v-2.22s-1.84,0-1.84,0v-2.22s1.85-.21,1.85-.21v-2s-1.85,0-1.85,0v-1.85h5.9v2.21s2.21,0,2.21,0v1.85s14.75,0,14.75,0v2.22s2.21,0,2.21,0v2.22s4.05,0,4.05,0l.34,2.06,1.87.16v4.06s13.27,0,13.27,0v-1.84s2.17-.6,2.17-.6l-.51-1.98h-10.14v-1.85s1.85,0,1.85,0v-2.22s-4.06,0-4.06,0v-10.69ZM178.77,59.31h-4.8l.06,1.61,4.13.55.61-2.16ZM185.03,67.79h-8.85v2.21h8.85v-2.21ZM138.21,86.96h-4.8l.06,1.61,4.13.55.61-2.16ZM142.27,86.96h-2.22v2.22h2.22v-2.22ZM161.44,86.96h-15.12l.06,1.6.49.61h14.56v-2.21ZM150.75,93.22h-12.9v2.21h25.81v-2.21h-10.69l-.21-2.22h-2s0,2.22,0,2.22ZM174.34,93.22h-6.64v2.21h6.64v-2.21ZM174.34,99.49h-27.47l-.59,1.29.59,1.29h27.47v-2.58ZM157.39,106.13h-2.58l.16,1.86c.36.53,1.5.45,2.08.19l.34-2.05ZM169.92,106.13h-6.64l.06,1.6.49.61h6.08v-2.21ZM185.03,106.13h-4.8l.06,1.61,4.13.55.61-2.16Z"/>
    <path fill="#fff" d="M224.85,427.23v2.21h7v-2.21h65.62v4.06h-46.82v2.58h48.66v4.06h-16.96l.16,1.87,16.8.34.55,2.21h8.29v-2.21h27.28v1.85s-4.06,0-4.06,0v2.21s-42.39,0-42.39,0v2.21h29.49v1.84h-5.71l-.55,2.21h-8.48v2.21s-1.85,0-1.85,0v-2.22s-2.23.16-2.23.16l-.34,2.05h-1.85s0,2.21,0,2.21h-6.64v2.21h-75.94v-2.21s-4.43,0-4.43,0v-2.21s-8.48,0-8.48,0v-2.21s-2.21,0-2.21,0v-8.48h-2.21s0-1.85,0-1.85l2.22-.21v-2s-2.22,0-2.22,0v-4.06h49.03v-2.58h-46.82v-1.84h10.69v-2.21h14.38ZM261.71,437.92h-7l.61,2.16,6.24-.29.16-1.87ZM278.67,437.92h-13.27l.61,2.16,12.5-.29.16-1.87Z"/>
    <path fill="#fff" d="M278.3,67.79v2.21h36.13v2.21h8.48v2.21h6.27v1.84h6.27v2.21s4.43,0,4.43,0v1.85h-8.11l-.21-1.85h-2.37s-.21,1.86-.21,1.86h-3.47s0-1.85,0-1.85h-2.58s0,1.85,0,1.85h-8.11l-.21-1.85h-4.58s0,1.85,0,1.85h-16.41l-.59,1.29.59,1.29h16.77v-2.21s1.63,0,1.63,0l.76,2.22h40v1.84h-19.17v2.21h-8.11v-2.21h-11.06v2.21s-1.63,0-1.63,0l-.21-2.22h-2.58s0,2.21,0,2.21h-29.49l-.21-2.22h-2s0,2.22,0,2.22h-14.75v-2.21s-4.43,0-4.43,0l-.21,2.22h-1.63s0-2.22,0-2.22h-4.43s0-1.84,0-1.84l4.43-.21v-2.37s-4.43,0-4.43,0v-1.85s-10.69,0-10.69,0v1.84h-8.48v2.58h16.96v1.85s1.85,0,1.85,0v2.21h-14.75l.55,2.21h20.83v2.21h8.48v1.85s-2.21,0-2.21,0v2.21h8.48v4.06h-18.62l-.59,1.29.59,1.29h20.83v4.06s-4.43,0-4.43,0l.35,2.05,6.29.16v2.22s1.84,0,1.84,0v1.85s-4.06.21-4.06.21v2s4.06,0,4.06,0v4.06s-1.85.21-1.85.21v4.21s1.86.21,1.86.21v2s-1.85,0-1.85,0v4.43s1.85,0,1.85,0v4.06s-1.48,0-1.48,0v-2.22s-2.21,0-2.21,0l-.34-2.05-4.08-.16v-2.22s-1.84,0-1.84,0v-1.85s-2.21,0-2.21,0v-2.22s-2.21,0-2.21,0v-2.22s-2.21,0-2.21,0v-2.22s-1.84,0-1.84,0l-.16-1.87-2.06-.34v-4.06s-2.21,0-2.21,0v-6.27h-2.21s0-2.21,0-2.21h-2.22s0-2.21,0-2.21h-1.85s-.34-2.05-.34-2.05l-1.87-.16v-1.85s-4.42,0-4.42,0v-2.21h19.17v-2.21h-19.54v2.21s-1.47,0-1.47,0v-2.22s-4.43,0-4.43,0v-2.22s-4.05,0-4.05,0l-.34-2.06-1.87-.16v-4.06s-6.63,0-6.63,0v-2.21s-1.84,0-1.84,0l-.34-2.05-2.24-.16v2.22s-1.84,0-1.84,0v-4.06s-2.21,0-2.21,0l.22-4.06h3.84s0,1.85,0,1.85h4.06s0,2.21,0,2.21h13.27v-2.21s-2.21,0-2.21,0v-1.85h6.08l.55-2.21h1.85s0-2.21,0-2.21h17.33v-2.21h16.59ZM308.17,74.05h-2.22v2.22h2.22v-2.22Z"/>
    <path fill="#fff" d="M212.31,82.9v1.84h8.48v2.21h-16.96v2.21h21.01l.34,2.05,4.08.16v1.85h-14.75v2.21h23.23v2.21s4.43,0,4.43,0v4.43s4.06,0,4.06,0v1.85s2.21,0,2.21,0v2.22s-4.43,0-4.43,0l.55,2.21h6.08v2.21s4.06,0,4.06,0v1.85s-2.22,0-2.22,0v2s2.22.21,2.22.21l.16,4.08,2.05.34v1.85s2.21,0,2.21,0v2.22s2.21,0,2.21,0v2.22s4.06,0,4.06,0v1.85h-14.75v2.58h8.48v1.84h8.48v2.21h-16.59v-2.21h-8.48l-.61-2.16-10.09-.05-.55-2.21h-6.08v-1.85s-4.06,0-4.06,0v-2.22s-4.42,0-4.42,0v-2.22s-4.05,0-4.05,0l-.34-2.05-5.92-.16-.34-2.05-4.08-.16v-1.85s-4.42,0-4.42,0v-2.22s-4.06,0-4.06,0v-4.06s1.87-.16,1.87-.16l.35-2.05h-4.43s0-4.06,0-4.06l1.87-.16v-2.26s-1.87-.16-1.87-.16v-6.27h-2.21s0-4.06,0-4.06l3.82-.05.61-2.16h-2.22s0-2.21,0-2.21h15.12v-1.84h5.9ZM201.99,93.22h-6.64v2.21h6.64v-2.21ZM212.68,93.22h-8.85v2.21h8.85v-2.21ZM210.47,99.49h-8.29l-.59,1.29.59,1.29h8.29v-2.58ZM220.79,102.07h18.99l.59-1.29-.59-1.29h-18.99v2.58ZM204.2,106.13h-2.58l.16,1.86c.36.53,1.5.45,2.08.19l.34-2.05ZM218.95,106.13h-2.58s.16,1.87.16,1.87l2.42.35v-2.22ZM212.68,112.39h-6.64v2.21h6.64v-2.21ZM227.43,112.39h-4.43v2.22h4.43v-2.22ZM240.33,112.39h-4.8v2.22h4.8v-2.22Z"/>
    <path fill="#fff" d="M389.27,208.25h4.06s0-2.21,0-2.21h-2.22s0-2.21,0-2.21h2.22s0-1.84,0-1.84h4.06s0,4.06,0,4.06l-2.22.21v2s2.22,0,2.22,0v4.06s-4.08.16-4.08.16l-.35,2.05h4.43s0,2.21,0,2.21h4.21s.21-2.22.21-2.22h1.85s0,2.22,0,2.22h2.22s0,1.84,0,1.84h-8.48v2.58h6.27v1.85s2.37,0,2.37,0l.21-1.85h1.85s0,1.85,0,1.85h1.85s0,2.21,0,2.21h-6.27l.6,4.38,1.82-.3.16-1.87h3.69v8.48h2.21s0,1.84,0,1.84l-1.87.16-.35,4.27h2.22s0,2.21,0,2.21h-2.22s0,1.84,0,1.84h-1.85s0,2.58,0,2.58h4.06s0,1.84,0,1.84h-2.22s0,2.21,0,2.21h-1.85s0,2.21,0,2.21l1.85.21v3.84s-1.85,0-1.85,0v2.21h8.48v2.21s1.84,0,1.84,0l.34,2.06,1.87.16.34,2.05,1.87.16v1.85s-2.22,0-2.22,0v2.21s-10.69,0-10.69,0l.55,2.21h10.14v4.06h-14.75v2.21s4.06,0,4.06,0l.6,2.16,3.84-.11.34-2.05h3.69s.34,2.05.34,2.05l4.08.16v1.85h-27.28v-1.84s2.16-.6,2.16-.6l.05-3.82h-6.64v-1.85s4.43,0,4.43,0v-4.43h-8.48v-4.06s3.69,0,3.69,0l.21,1.85h2.37s0-1.85,0-1.85h8.48v-2.58h-16.96v-4.06h10.32l.21,2.22h2.37s0-2.22,0-2.22h6.27v-2.21h-6.27l-.16-1.87h-2.26s-.16,1.87-.16,1.87h-8.11v-4.06h16.96v-2.21h-6.27v-2.21s-2.37,0-2.37,0l-.21,2.22h-5.9v-2.21h-15.12v-1.84h12.35l.39-2.24-4.27-.34v-1.85s-10.69,0-10.69,0v1.84h-10.32v-1.85s-2.21,0-2.21,0v-2.21h21.38l-.16-1.87-2.05-.35-.34-2.05h-1.9s-.34,2.05-.34,2.05h-5.9l-.55-2.21h-6.08v-1.84h17.33v-2.21s1.85,0,1.85,0v-2.22s-1.85-.21-1.85-.21v-1.63s1.85,0,1.85,0v-4.43s-4.06,0-4.06,0v-4.06s1.85,0,1.85,0v1.85s2.21,0,2.21,0v-1.85s4.26-.34,4.26-.34l-.39-2.24h-10.14v-4.06s4.06,0,4.06,0v2.21s6.63,0,6.63,0v-2.21s2.21,0,2.21,0v-6.27ZM393.33,218.57h-4.43v2.58h4.43v-2.58ZM399.96,225.2h-2.58s0,2.21,0,2.21l2.24-.16.35-2.05ZM399.96,231.47h-11.06v4.42h11.06v-4.42ZM408.44,231.47h-4.8v4.43h4.8v-4.43ZM388.9,242.16h11.06l-.55-2.21h-6.08v-2.21s-2.24.16-2.24.16l-.34,2.05h-1.85s0,2.21,0,2.21ZM408.44,242.17l-.16-4.08-2.42-.35v2.21s-1.87.16-1.87.16l-.35,2.05h4.8ZM391.3,248.8h8.11l.59-1.29-.59-1.29h-6.08v-1.85s-2.58,0-2.58,0l.56,4.43ZM402.04,246.27l-.26,2.37,4.29-.18-.19-2.08-3.84-.11ZM404.25,265.43c-1.57.53-.29,3.73,1.63,2.38.95-.67.44-3.07-1.63-2.38ZM412.5,265.39l-2.24.16-.36.77.18,1.31,2.42.34v-2.58ZM414.34,267.97l2.24-.16.36-.77-.18-1.31-2.42-.34v2.58ZM401.81,272.02h-2.22v2.22h2.22v-2.22Z"/>
    <path fill="#fff" d="M290.84,155.16l.16,1.87,2.06.55v1.63s-2.23,0-2.23,0v2.22s4.43,0,4.43,0v2.22s2.21,0,2.21,0v4.06s4.06,0,4.06,0v2.22s2.21,0,2.21,0v2.22s2.21,0,2.21,0v2.21s6.27,0,6.27,0v1.84h6.27v2.21s-4.06,0-4.06,0v2.21s-6.63,0-6.63,0v1.85s-4.06,0-4.06,0v4.43s-6.27,0-6.27,0v2.21h-6.27v-2.21h-6.27v-2.21s-4.45.16-4.45.16l-.55,2.06h-11.96s-.6-2.17-.6-2.17l-7.87-.05-.34-2.06-1.87-.16v-1.85s-2.21,0-2.21,0v-2.22s-2.21,0-2.21,0v-2.22s-1.84,0-1.84,0l-.16-1.87-2.06-.34v-4.06s-2.21,0-2.21,0v-2.22s-2.21,0-2.21,0v-2.22s-1.84,0-1.84,0l-.16-1.87-2.06-.34v-4.06s-4.42,0-4.42,0v-1.85s2.22,0,2.22,0v-2.21s52.72,0,52.72,0ZM267.98,159.21h-15.48v2.21h15.48v-2.21ZM284.94,159.21h-15.12v2.21h15.12v-2.21ZM276.46,167.69l-.06-1.6-.49-.61h-16.77v2.21h17.33ZM280.52,165.48h-2.22v2.22h2.22v-2.22ZM287.15,167.69l-.61-2.16-4.13.55-.06,1.61h4.8ZM274.25,171.75l-2.24.16-.36.77.18,1.31,2.42.34v-2.58Z"/>
    <path fill="#fff" d="M321.07,186.86v-1.84s1.87-.16,1.87-.16l.34-2.06h5.9s.55,2.21.55,2.21h5.71v1.85s-4.06,0-4.06,0v2.22s4.43,0,4.43,0l.21-2.22h1.63s0,2.22,0,2.22h6.64v2.21s1.85,0,1.85,0v1.85s-4.06,0-4.06,0v2.21h12.54v4.06s-1.85,0-1.85,0v2.58h6.27v1.85s2.21,0,2.21,0v2.21h-32.08v2.21h33.92l.34,2.05,1.87.16v1.84h-24.89l-.55,2.21h27.65v2.21s4.43,0,4.43,0v1.85h-16.78l-.59,1.29.59,1.29h14.56v1.85s2.37,0,2.37,0l.21-1.85h1.47s0,1.85,0,1.85h2.22s0,2.21,0,2.21h-16.96v2.21h12.9v2.21h6.27v1.84h-16.96v2.21h-6.27v-2.21h-10.32l-.55-2.21h-8.29v-4.06s-1.85,0-1.85,0v-2.22s-4.42,0-4.42,0v-4.43s-4.06,0-4.06,0v-1.85s-2.21,0-2.21,0v-2.22s4.06,0,4.06,0v-2.21h-10.32v-4.06h6.27v-2.21h-10.69v-2.21s-4.43,0-4.43,0v-1.85h42.21l.59-1.29-.59-1.29h-48.48v-1.85s-2.21,0-2.21,0v-2.21h40.55v-2.21h-33.92v-1.84h6.27v-2.21s4.43,0,4.43,0v-2.22s3.69,0,3.69,0v2.21s8.85,0,8.85,0v-2.21h-8.48ZM348.96,218.62l-.26,2.37,4.29-.18-.19-2.08-3.84-.11Z"/>
    <path fill="#fff" d="M303.74,114.61v2.21s4.06,0,4.06,0v1.85s-1.85,0-1.85,0v2.22s4.06,0,4.06,0v2.22s2.21,0,2.21,0v2.22s2.21,0,2.21,0v4.43s4.06,0,4.06,0v1.85s2.21,0,2.21,0v2.22s-2.22,0-2.22,0l.55,2.21h6.08v1.85s-2.21,0-2.21,0v2.21s-6.27,0-6.27,0v2.21h8.48v4.06h-14.56l-.55,2.21h16.96v4.42h-14.75l.55,2.21h16.41v4.06h-6.27v2.21h8.48v4.06s-1.87.16-1.87.16l-.35,2.05h2.22s0,4.06,0,4.06l-1.87.16.27,2.37,1.6.05v4.06s2.21,0,2.21,0v2.22s1.84,0,1.84,0l-.22,1.85h-3.47s0-1.85,0-1.85h-4.43s0-2.21,0-2.21h-1.85s0-2.21,0-2.21h-4.43s0-2.21,0-2.21h-4.06s-.34-2.05-.34-2.05l-4.08-.16v-1.85s-2.21,0-2.21,0v-2.22s4.43,0,4.43,0l-.35-2.05-12.56-.16v-2.22s-2.21,0-2.21,0v-1.85h8.11l.34,2.05,2.24.16v-2.22s2.21,0,2.21,0v-2.21h-14.75v-4.06h12.53v-2.21h-14.75v-2.21s-2.21,0-2.21,0v-2.22s4.43,0,4.43,0l-.55-2.21h-7.93v-6.27h-2.21s-.34-2.05-.34-2.05l-1.87-.16v-1.84h29.31l.55-2.21h-32.07v-4.06s3.82-.05,3.82-.05l.45-2.18-4.27-.34v-4.06s2.22,0,2.22,0v-2.21s16.96,0,16.96,0v-2.21h-16.96v-1.84h8.48v-2.21h10.32ZM295.26,129.72l2.24-.16.36-.77-.18-1.31-2.42-.34v2.58ZM302.14,127.19l-.26,2.37,4.29-.18-.19-2.08-3.84-.11ZM312.59,127.14l-4.45.16-.19,2.08,4.63.34v-2.58ZM304.11,140.04h-11.06v2.21h11.06v-2.21ZM312.59,140.04h-4.8v2.22h4.8v-2.22ZM308.17,146.31h-8.29l-.49.61-.06,1.6h8.85v-2.21ZM317.02,159.21h-2.58v2.22h2.58v-2.22ZM318.86,165.48h-2.22v2.22h2.22v-2.22Z"/>
    <path fill="#fff" d="M356.83,155.16l.34,2.05,1.87.16v4.06s2.21,0,2.21,0v2.22s1.84,0,1.84,0v1.85h-18.8v2.21h23.23v2.21s2.21,0,2.21,0v4.43s2.21,0,2.21,0v1.85s1.84,0,1.84,0v4.43s-1.85,0-1.85,0v2.21h6.27v1.84s-1.87.16-1.87.16l-.34,2.05h-12.9v2.21h17.33v4.06h-6.27v-2.21s-2.21,0-2.21,0v2.22s-4.08.16-4.08.16l-.35,2.05h12.9v2.21s-4.43,0-4.43,0v1.85s-14.38,0-14.38,0v-1.85s-2.21,0-2.21,0v-2.22s-2.21,0-2.21,0v-2.22s-2.21,0-2.21,0v-2.22s-4.06,0-4.06,0v-1.85s-2.21,0-2.21,0v-2.22s-4.05,0-4.05,0l-.34-2.06-1.87-.16v-4.06s-2.21,0-2.21,0v-8.85h-2.21s0-3.84,0-3.84l2.22-.21v-2.22s-4.43,0-4.43,0v-4.06s2.22-.21,2.22-.21v-2s-2.22,0-2.22,0v-4.06h21.02ZM353.14,159.21h-11.06v2.21h11.06v-2.21ZM348.9,171.75l-.59,1.29.59,1.29h12.17l.59-1.29-.59-1.29h-12.17ZM357.2,186.86h-2.58v2.22h2.58v-2.22Z"/>
    <path fill="#fff" d="M214.89,140.04l-.61-2.16-7.87-.05-.34-2.05-4.08-.16v-1.85s-4.42,0-4.42,0v-2.22s-1.84,0-1.84,0l-.16-1.87-2.05-.34-.16-1.87-2.06-.34v-1.85s-2.21,0-2.21,0v-2.22s2.22,0,2.22,0v-4.06s1.84,0,1.84,0v1.85s10.69,0,10.69,0v2.21s2.21,0,2.21,0v2.21s6.27,0,6.27,0v2.21s4.06,0,4.06,0l.55,2.21h7.93v1.84h6.64v2.21s2.21,0,2.21,0v2.21s38.34,0,38.34,0v-2.21s1.63,0,1.63,0l.56,2.06,4.08.16v2.22s1.84,0,1.84,0v1.85s2.21,0,2.21,0v2.22s2.21,0,2.21,0v4.06h-5.9l-.16-1.87h-34.33s-.16,1.87-.16,1.87l-7.87.05-.6,2.16h-3.69s-.55-4.43-.55-4.43h-8.29v2.21h-10.32l-.55-2.21h-5.71v-1.84h18.8v-2.21h-10.32ZM242.54,140.04h-13.27v2.21h13.27v-2.21ZM270.19,140.04h-19.54v2.21h19.54v-2.21Z"/>
    <path fill="#fff" d="M276.46,248.8l2.05-.34.16-4.08h1.85s0-4.06,0-4.06h2.22s0-2.21,0-2.21l4.08-.16.34-2.05h2.21s0-2.21,0-2.21h4.06s0-2.21,0-2.21h4.43s0-1.84,0-1.84h3.69s0,1.85,0,1.85h-2.22s0,2.21,0,2.21h2.58s0-2.22,0-2.22h2.22s0-1.84,0-1.84h8.11v1.85s-2.21,0-2.21,0v2.22s4.43,0,4.43,0v2.22s4.05,0,4.05,0l.16,1.87,2.05.34.35,2.05,4.08.16v1.85s1.84,0,1.84,0v2.22s2.21,0,2.21,0l.16,4.08,2.05.34v6.27h2.21v16.96h1.84v12.53h-1.85s0,4.43,0,4.43h-2.22s0,2.21,0,2.21h-4.43s0,1.84,0,1.84h-1.47s0-4.06,0-4.06h1.85s0-2.21,0-2.21h2.22s0-2.21,0-2.21h-2.22s0-1.84,0-1.84l3.82-.05.61-.87-.34-16.25-1.87-.16v-10.69h-2.21v-6.27h-1.84s-.6-2.16-.6-2.16l-6.03-.05v-1.85s-1.84,0-1.84,0v-2.22s-2.58,0-2.58,0v4.06s-4.06,0-4.06,0l-.21-1.85h-2.37s0,1.85,0,1.85h-3.69s0-4.06,0-4.06h2.22s-.05-3.82-.05-3.82l-4.4-.45-.34,2.05h-4.06s0,2.21,0,2.21h-4.43s0,2.21,0,2.21h-2.22s0,1.84,0,1.84h-1.85s0,6.63,0,6.63h-2.21v12.53h-8.11v-1.85s-2.21,0-2.21,0v-14.75ZM312.59,239.95l-2.24.16-.35,2.05h2.58s0-2.21,0-2.21Z"/>
    <polygon fill="#fff" points="382.27 255.07 382.27 256.91 380.42 256.91 380.42 259.12 354.62 259.12 354.62 261.33 382.27 261.33 382.27 265.39 361.25 265.39 361.25 267.97 382.27 267.97 382.26 269.82 384.48 269.81 384.48 272.02 367.52 272.02 368.07 274.24 380.42 274.24 380.42 276.45 386.69 276.45 386.69 278.29 380.42 278.29 380.42 280.51 382.27 280.5 382.42 282.37 384.48 282.72 384.48 284.56 382.61 284.72 382.26 288.99 384.48 288.98 384.48 291.2 374.16 291.2 374.16 286.77 370.1 286.77 369.76 284.72 365.67 284.56 365.68 282.72 371.76 282.72 372.31 280.5 376.37 280.51 376.37 278.29 353.14 278.29 353.14 274.24 361.07 274.24 361.62 272.02 348.72 272.02 348.72 269.81 346.5 269.81 346.51 267.97 352.59 267.97 353.18 266.68 352.59 265.39 346.51 265.39 346.51 261.33 353.14 261.33 353.14 259.12 348.72 259.12 348.72 257.28 350.59 257.12 350.93 255.07 382.27 255.07"/>
    <path fill="#fff" d="M339.87,89.17v1.84h-6.27v2.21h-16.59l-.16-1.87-2.42-.35v2.21s-8.48,0-8.48,0v2.21h29.49v2.21h6.64v1.84h-31.52l-.59,1.29.59,1.29h20.83l.21,1.85h2.37s0-1.85,0-1.85h10.32v1.85s4.06,0,4.06,0v2.21h-50.51v-4.06h10.32v-2.58h-14.75l-.21-1.85h-2.37s0,1.85,0,1.85h-12.17v-1.85s1.85,0,1.85,0v-2.22s4.42,0,4.42,0v-2.21h-8.48l-.55-2.21h-5.71v-1.84h69.68ZM299.69,93.22h-10.69v2.21h10.69v-2.21Z"/>
    <path fill="#fff" d="M259.13,235.9v1.84h-6.08l-.51,1.98,2.17.6v1.85s4.42,0,4.42,0v4.06s-1.87.16-1.87.16l.27,2.37,1.6.05v4.06s2.21,0,2.21,0v4.06s-2.22,0-2.22,0v2.22s-2.21,0-2.21,0v4.43s-5.9,0-5.9,0v-2.21s1.85,0,1.85,0v-2.22s2.21,0,2.21,0v-8.48h-2.58s0,2.21,0,2.21h-1.85s0,6.27,0,6.27h-1.84v-8.48h-4.79v8.48h-1.85s0,4.42,0,4.42h-6.64l.16,4.08,2.05.34v4.06h-6.27v1.85s-3.84,0-3.84,0l-.22-1.85h2.22s0-4.05,0-4.05l2.21-.55v-6.08h2.21v-14.75h1.85s0-2.21,0-2.21h-4.06s0-2.21,0-2.21h5.9v2.21s4.79,0,4.79,0l-.05-3.82-4.37-.6v-2.22s-2.21,0-2.21,0v-1.85h23.23ZM255.08,244.37h-2.58s.35,4.26.35,4.26l2.24.16v-4.43Z"/>
    <polygon fill="#fff" points="299.32 401.79 299.32 403.64 297.47 403.63 297.48 405.85 293.4 406.01 293.05 408.06 299.32 408.06 299.32 412.12 293.6 412.12 293.02 413.41 293.6 414.7 299.32 414.7 299.32 416.54 297.47 416.54 297.47 418.75 265.77 418.75 265.56 416.53 261.34 416.54 261.35 418.75 246.6 418.75 246.6 416.54 244.39 416.54 244.39 414.7 288.81 414.7 289.4 413.41 288.81 412.12 270.19 412.12 270.19 410.27 248.81 410.27 248.81 408.06 291.21 408.06 291.21 405.85 289.36 405.85 289.02 403.8 286.78 403.63 286.78 405.85 278.67 405.85 278.12 403.64 263.56 403.64 263.56 401.79 299.32 401.79"/>
    <polygon fill="#fff" points="307.8 301.89 307.8 303.73 305.95 303.73 305.95 305.94 293.05 305.94 293.05 308.15 303.74 308.15 303.74 310.37 307.95 310.37 308.17 308.15 316.64 308.15 316.64 312.21 297.47 312.21 297.47 314.42 314.43 314.42 314.43 316.63 312.22 316.63 312.22 318.84 303.74 318.84 303.74 321.06 310.01 321.06 310.01 322.9 308.14 323.06 307.8 325.11 297.47 325.11 297.47 329.17 289.36 329.17 289.36 327.32 293.42 327.33 293.42 325.11 287.15 325.11 287.15 321.06 299.69 321.06 299.69 318.84 287.15 318.84 287.15 314.42 293.42 314.42 293.42 312.21 287.15 312.21 287.15 308.15 289.37 308.16 289.37 306.15 287.15 305.94 287.15 304.1 291.21 304.1 291.21 301.89 307.8 301.89"/>
    <polygon fill="#fff" points="233.7 221.15 233.7 222.99 244.39 222.99 244.39 221.15 269.82 221.15 269.82 222.99 276.09 222.99 276.09 225.2 265.4 225.2 266.01 227.36 271.67 227.42 272.22 229.63 278.3 229.63 278.3 231.47 263.19 231.47 263.19 233.69 265.4 233.68 265.4 248.43 263.56 248.43 263.56 242.16 261.71 242.17 261.71 240.32 263.56 240.11 263.56 235.89 261.71 235.9 261.71 231.47 229.64 231.47 229.64 227.42 239.96 227.42 239.96 229.63 244.17 229.64 244.39 227.42 261.16 227.42 261.71 225.2 227.43 225.2 227.43 222.99 225.21 222.99 225.22 221.15 233.7 221.15"/>
    <rect fill="#fff" x="235.91" y="420.96" width="61.57" height="4.06"/>
    <polygon fill="#fff" points="322.91 274.24 322.91 278.29 316.64 278.29 316.64 280.51 318.49 280.5 318.65 282.37 320.7 282.72 320.7 284.56 316.64 284.56 316.64 288.99 318.49 288.98 318.49 291.2 314.43 291.19 314.43 293.04 308.35 293.04 307.96 295.28 312.22 295.62 312.22 297.46 301.53 297.46 301.53 299.67 295.63 299.67 295.63 297.46 297.84 297.46 297.84 295.62 303.5 295.57 304.11 293.41 306.16 293.06 306.32 291.2 304.11 291.2 304.11 288.98 306.32 288.99 305.77 284.56 299.69 284.56 299.69 282.72 310.38 282.72 310.38 280.5 312.59 280.51 312.59 276.45 314.46 276.29 314.8 274.24 322.91 274.24"/>
    <polygon fill="#fff" points="286.78 148.52 286.78 150.74 289 150.73 289 152.95 244.39 152.95 244.39 150.74 251.02 150.74 251.02 148.52 286.78 148.52"/>
    <polygon fill="#fff" points="414.34 286.77 414.34 288.99 418.4 288.98 418.39 291.2 412.13 291.2 412.13 293.04 405.86 293.04 405.86 295.62 414.34 295.62 414.34 297.46 409.91 297.46 409.92 299.68 406.23 299.68 406.23 297.46 401.8 297.46 401.81 293.04 397.75 293.04 397.75 291.2 391.11 291.2 391.11 288.98 397.75 288.98 397.75 286.77 414.34 286.77"/>
    <polygon fill="#fff" points="326.97 433.87 327.18 435.72 331.76 435.71 331.97 433.86 333.61 433.86 333.6 435.71 335.82 435.71 335.81 433.87 348.35 433.87 348.35 435.71 346.14 435.71 346.14 437.92 304.11 437.92 304.11 435.71 306.32 435.71 306.32 433.87 326.97 433.87"/>
    <polygon fill="#fff" points="144.11 114.61 144.66 116.82 150.75 116.82 150.75 118.66 146.32 119.22 146.32 125.3 144.11 125.3 144.46 129.56 146.32 129.72 146.33 131.57 144.11 131.56 144.11 133.78 140.42 133.78 140.27 129.7 138.21 129.35 137.87 127.3 136 127.14 136 123.08 138.22 123.09 138.21 120.87 140.43 120.87 140.08 118.82 138.21 118.66 138.21 114.61 144.11 114.61"/>
    <polygon fill="#fff" points="322.91 261.33 322.91 263.55 326.97 263.54 326.97 265.39 306.32 265.39 306.32 263.54 301.9 263.55 301.9 261.33 322.91 261.33"/>
    <polygon fill="#fff" points="297.47 393.31 297.47 395.53 305.95 395.53 305.95 397.37 290.84 397.37 290.65 399.58 289.37 399.58 289.36 397.37 276.46 397.37 276.46 395.53 286.6 395.53 287.15 393.31 297.47 393.31"/>
    <polygon fill="#fff" points="306.32 431.29 306.32 429.44 308.17 429.44 308.38 427.22 325.13 427.23 325.12 429.44 326.97 429.44 326.97 431.29 306.32 431.29"/>
    <polygon fill="#fff" points="371.94 248.8 371.95 250.64 369.73 250.64 369.52 252.86 353.14 252.86 353.14 250.64 350.93 250.64 350.93 248.8 371.94 248.8"/>
    <polygon fill="#fff" points="299.32 387.05 299.32 388.89 303.74 388.89 303.74 391.1 280.52 391.1 280.52 388.89 287.15 388.89 287.15 387.05 299.32 387.05"/>
    <polygon fill="#fff" points="280.15 288.98 280.15 291.2 276.09 291.19 276.09 293.04 274.25 293.04 274.25 291.2 248.81 291.2 248.81 288.98 280.15 288.98"/>
    <polygon fill="#fff" points="382.27 201.98 382.27 203.82 380.42 203.82 380.42 206.03 365.68 206.03 365.68 203.82 361.62 203.82 361.62 201.98 382.27 201.98"/>
    <rect fill="#fff" x="244.39" y="314.42" width="31.7" height="2.21"/>
    <rect fill="#fff" x="310.38" y="267.97" width="16.59" height="4.06"/>
    <rect fill="#fff" x="244.39" y="295.62" width="35.76" height="1.84"/>
    <polygon fill="#fff" points="289.36 382.62 289.36 380.41 293.05 380.41 293.26 382.63 295.63 382.62 295.63 380.41 301.53 380.41 301.53 382.62 305.96 382.62 305.95 384.47 282.73 384.47 282.73 382.62 289.36 382.62"/>
    <rect fill="#fff" x="246.6" y="301.89" width="31.7" height="1.84"/>
    <rect fill="#fff" x="244.39" y="321.06" width="31.7" height="1.84"/>
    <polygon fill="#fff" points="335.81 152.95 335.81 150.73 338.03 150.74 338.24 148.52 348.35 148.52 348.35 150.74 350.56 150.73 350.56 152.95 335.81 152.95"/>
    <polygon fill="#fff" points="346.51 237.74 346.5 233.68 348.35 233.68 348.35 235.9 361.25 235.9 361.25 238.11 363.1 238.11 363.1 239.95 353.14 239.95 352.59 237.74 346.51 237.74"/>
    <rect fill="#fff" x="312.59" y="420.96" width="12.53" height="4.06"/>
    <rect fill="#fff" x="248.81" y="308.15" width="27.28" height="1.84"/>
    <polygon fill="#fff" points="301.9 259.12 301.9 257.28 303.77 257.12 304.32 255.06 314.43 255.06 314.43 257.28 316.65 257.28 316.64 259.12 301.9 259.12"/>
    <polygon fill="#fff" points="318.49 108.34 319.04 110.55 335.45 110.55 335.45 112.39 317.01 112.39 316.46 110.18 310.38 110.18 310.38 108.34 318.49 108.34"/>
    <rect fill="#fff" x="370.1" y="208.25" width="12.17" height="4.06"/>
    <polygon fill="#fff" points="316.64 248.8 316.64 252.85 310.38 252.85 310.38 250.64 306.17 250.64 305.96 252.86 304.11 252.86 304.11 250.64 299.68 250.64 299.69 248.8 316.64 248.8"/>
    <polygon fill="#fff" points="333.6 342.07 333.6 344.28 318.49 344.28 318.49 346.5 317.02 346.5 317.02 344.28 314.8 344.28 314.8 342.07 333.6 342.07"/>
    <rect fill="#fff" x="255.08" y="282.72" width="23.23" height="1.84"/>
    <polygon fill="#fff" points="293.42 378.2 293.42 376.35 295.29 376.2 295.84 374.13 303.74 374.14 303.74 376.36 305.96 376.35 305.95 378.2 293.42 378.2"/>
    <polygon fill="#fff" points="326.97 414.7 326.97 416.54 325.12 416.54 324.91 418.76 317.01 418.75 317.02 416.54 314.8 416.54 314.8 414.7 326.97 414.7"/>
    <polygon fill="#fff" points="295.08 110.55 295.63 108.34 299.32 108.34 299.66 110.39 301.53 110.55 301.53 112.39 284.94 112.39 284.94 110.55 295.08 110.55"/>
    <rect fill="#fff" x="312.59" y="348.71" width="21.01" height="1.84"/>
    <polygon fill="#fff" points="282.36 195.34 282.36 197.56 284.57 197.55 284.57 199.4 276.46 199.4 276.46 197.55 272.03 197.56 272.04 195.34 282.36 195.34"/>
    <polygon fill="#fff" points="293.05 265.76 293.05 267.6 291.18 267.76 290.84 269.81 293.05 269.81 293.05 272.02 287.15 272.02 287.15 269.81 284.94 269.81 284.93 268.18 286.99 267.63 287.15 265.76 293.05 265.76"/>
    <polygon fill="#fff" points="135.63 116.82 135.63 118.66 133.58 119.01 133.42 120.88 131.57 120.87 131.58 123.09 129.36 123.08 129.37 125.3 127.15 125.3 127.16 127.14 125.31 127.14 125.31 123.08 127.52 123.09 127.52 120.87 129.74 120.88 129.73 119.03 131.6 118.87 131.95 116.82 135.63 116.82"/>
    <polygon fill="#fff" points="303.74 208.25 303.74 212.3 297.84 212.3 297.5 210.25 293.42 210.09 293.42 208.25 303.74 208.25"/>
    <polygon fill="#fff" points="231.48 148.52 231.49 150.74 229.27 150.73 229.06 152.95 225.21 152.95 225.22 150.73 221.16 150.74 221.16 148.52 231.48 148.52"/>
    <polygon fill="#fff" points="320.7 182.81 320.7 184.65 314.43 184.65 314.43 186.86 306.32 186.86 306.32 185.02 312.59 185.02 312.59 182.81 320.7 182.81"/>
    <polygon fill="#fff" points="316.64 361.24 316.65 363.45 312.22 363.45 312.22 365.3 306.32 365.3 306.32 363.45 308.17 363.45 308.17 361.24 316.64 361.24"/>
    <polygon fill="#fff" points="299.32 201.98 299.32 206.03 293.42 206.03 293.42 203.82 291.21 203.82 291.21 201.98 299.32 201.98"/>
    <polygon fill="#fff" points="312.22 367.88 312.22 369.72 307.79 369.72 307.8 371.93 301.9 371.93 301.9 369.72 304.11 369.72 304.11 367.88 312.22 367.88"/>
    <polygon fill="#fff" points="248.44 259.12 248.44 265.39 246.23 265.94 246.23 272.02 244.39 272.02 244.39 263.55 246.6 263.55 246.6 259.12 248.44 259.12"/>
    <rect fill="#fff" x="259.5" y="329.54" width="14.38" height="1.84"/>
    <rect fill="#fff" x="261.71" y="276.45" width="14.38" height="1.84"/>
    <rect fill="#fff" x="240.33" y="329.54" width="14.38" height="1.84"/>
    <polygon fill="#fff" points="326.97 408.06 326.97 410.27 325.12 410.27 325.13 412.12 321.28 412.12 321.07 410.27 318.85 410.27 318.86 408.06 326.97 408.06"/>
    <polygon fill="#fff" points="293.05 195.34 292.84 199.41 289.36 199.4 289.37 197.55 284.94 197.56 284.94 195.34 293.05 195.34"/>
    <polygon fill="#fff" points="342.08 135.99 342.08 137.83 340.21 137.99 339.66 140.06 335.81 140.05 335.82 137.83 333.97 137.83 333.97 135.99 342.08 135.99"/>
    <polygon fill="#fff" points="282.36 267.97 282.36 269.82 284.57 269.81 284.57 272.02 278.67 272.02 278.67 269.81 276.46 269.81 276.46 267.97 282.36 267.97"/>
    <rect fill="#fff" x="317.01" y="335.8" width="12.17" height="1.84"/>
    <polygon fill="#fff" points="326.97 295.62 326.97 297.46 325.12 297.46 325.13 299.68 321.28 299.68 321.07 295.62 326.97 295.62"/>
    <polygon fill="#fff" points="265.4 195.34 265.19 199.41 261.71 199.4 261.72 197.55 259.5 197.56 259.5 195.34 265.4 195.34"/>
    <rect fill="#fff" x="267.98" y="235.9" width="10.32" height="1.84"/>
    <rect fill="#fff" x="295.63" y="216.73" width="8.11" height="1.84"/>
    <polygon fill="#fff" points="350.56 89.17 350.35 93.23 348.72 93.23 348.72 91.01 344.66 91.01 344.66 89.17 350.56 89.17"/>
    <rect fill="#fff" x="261.71" y="335.8" width="8.11" height="1.84"/>
    <polygon fill="#fff" points="326.97 255.07 326.97 259.12 325.68 259.13 325.15 257.07 321.07 256.91 321.07 255.07 326.97 255.07"/>
    <polygon fill="#fff" points="322.91 301.89 322.91 303.73 318.83 303.89 318.3 305.95 317.02 305.94 317.01 301.89 322.91 301.89"/>
    <rect fill="#fff" x="272.04" y="242.16" width="6.27" height="2.21"/>
    <rect fill="#fff" x="304.11" y="222.99" width="5.9" height="2.21"/>
    <polygon fill="#fff" points="348.35 242.16 348.35 246.22 346.5 246.22 346.51 244.37 344.66 244.38 344.66 242.16 348.35 242.16"/>
    <rect fill="#fff" x="318.86" y="354.97" width="6.27" height="1.84"/>
    <polygon fill="#fff" points="284.57 102.07 284.57 106.13 282.73 106.13 282.73 103.91 280.51 103.92 280.51 102.07 284.57 102.07"/>
    <polygon fill="#fff" points="354.62 142.25 354.62 144.1 352.77 144.1 352.78 146.31 350.93 146.31 350.93 142.25 354.62 142.25"/>
    <rect fill="#fff" x="331.76" y="335.8" width="5.9" height="1.84"/>
    <rect fill="#fff" x="321.07" y="401.79" width="5.9" height="1.84"/>
    <rect fill="#fff" x="333.97" y="129.72" width="5.9" height="1.84"/>
    <rect fill="#fff" x="333.97" y="116.82" width="5.9" height="1.84"/>
    <rect fill="#fff" x="329.55" y="148.52" width="4.06" height="2.22"/>
    <rect fill="#fff" x="201.99" y="138.2" width="4.06" height="1.85"/>
    <rect fill="#fff" x="357.2" y="135.99" width="4.06" height="1.85"/>
    <rect fill="#fff" x="340.24" y="429.44" width="4.06" height="1.85"/>
    <rect fill="#fff" x="318.85" y="221.15" width="4.06" height="1.85"/>
    <rect fill="#fff" x="310.38" y="216.72" width="4.06" height="1.85"/>
    <rect fill="#fff" x="312.59" y="354.97" width="4.06" height="1.85"/>
    <rect fill="#fff" x="372.31" y="157.37" width="3.69" height="1.85"/>
    <rect fill="#fff" x="185.03" y="82.9" width="3.69" height="1.85"/>
    <rect fill="#fff" x="361.62" y="129.72" width="3.69" height="1.85"/>
    <rect fill="#fff" x="261.72" y="248.8" width="1.47" height="4.06"/>
    <rect fill="#fff" x="287.15" y="103.91" width="1.85" height="2.22"/>
    <rect fill="#fff" x="291.21" y="103.91" width="1.85" height="2.22"/>
    <rect fill="#fff" x="359.41" y="103.91" width="1.85" height="2.22"/>
    <rect fill="#fff" x="304.11" y="214.51" width="1.85" height="2.22"/>
    <rect fill="#fff" x="210.47" y="120.87" width="1.85" height="2.22"/>
    <rect fill="#fff" x="189.09" y="131.56" width="1.85" height="2.22"/>
    <rect fill="#fff" x="340.24" y="131.56" width="1.85" height="2.22"/>
    <rect fill="#fff" x="235.91" y="150.73" width="1.85" height="2.22"/>
    <rect fill="#fff" x="308.16" y="210.46" width="1.85" height="1.85"/>
    <rect fill="#fff" x="265.77" y="127.51" width="1.85" height="1.85"/>
    <rect fill="#fff" x="295.63" y="276.45" width="1.85" height="1.85"/>
    <rect fill="#fff" x="240.33" y="374.14" width="1.85" height="1.85"/>
    <rect fill="#fff" x="314.8" y="221.15" width="1.85" height="1.85"/>
    <rect fill="#fff" x="280.51" y="276.45" width="1.85" height="1.85"/>
    <rect fill="#fff" x="191.3" y="133.78" width="1.85" height="1.85"/>
    <rect fill="#fff" x="323.28" y="129.72" width="1.85" height="1.85"/>
    <rect fill="#fff" x="121.25" y="70" width="1.85" height="1.85"/>
    <rect fill="#fff" x="193.51" y="135.99" width="1.85" height="1.85"/>
    <rect fill="#fff" x="348.72" y="129.72" width="1.85" height="1.85"/>
    <rect fill="#fff" x="240.33" y="169.9" width="1.85" height="1.85"/>
    <rect fill="#fff" x="259.5" y="401.79" width="1.85" height="1.85"/>
    <rect fill="#fff" x="331.76" y="229.63" width="1.85" height="1.85"/>
    <polygon points="140.42 225.2 140.08 227.26 138.21 227.42 138.21 231.47 151.12 231.47 151.12 233.69 148.9 233.9 148.9 237.74 150.77 237.9 150.5 240.27 148.9 240.32 148.91 242.17 146.69 242.16 146.69 248.8 144.48 248.8 144.48 255.07 120.89 255.07 120.88 252.85 123.1 252.86 123.1 250.64 131.58 250.64 131.58 248.8 120.89 248.8 120.88 246.22 124.94 246.22 124.94 244.37 129.37 244.38 129.37 242.16 120.89 242.16 120.88 239.95 123.1 239.95 123.1 237.74 124.94 237.74 124.95 236.11 120.88 235.9 120.89 231.47 127.15 231.47 127.15 229.63 124.99 229.02 124.94 225.2 140.42 225.2"/>
    <polygon points="184.48 350.55 185.03 352.76 189.09 352.76 189.09 354.97 180.61 354.97 180.61 356.82 184.69 356.98 185.03 359.03 189.09 359.03 189.09 361.24 185.03 361.24 185.03 363.45 189.09 363.45 189.09 365.3 191.3 365.29 191.3 367.88 189.09 367.87 189.09 371.93 193.51 371.93 193.51 374.15 189.09 374.14 189.09 378.2 191.3 378.2 191.3 380.41 189.09 380.41 189.09 382.62 185.03 382.62 185.03 384.47 191.3 384.47 191.3 387.05 189.09 387.04 189.09 388.89 178.4 388.89 178.39 384.46 180.24 384.47 180.24 382.62 178.39 382.62 178.4 380.41 173.97 380.41 174.32 378.36 176.19 378.2 176.18 375.98 178.4 375.99 178.4 374.14 171.76 374.14 171.76 371.93 173.98 371.93 173.97 369.72 178.4 369.72 178.4 367.88 167.71 367.88 167.7 365.29 171.76 365.3 171.76 363.45 173.98 363.45 173.97 361.24 167.71 361.24 167.7 359.03 169.55 359.03 169.71 357.16 171.76 356.82 171.76 354.97 161.07 354.97 161.07 352.76 165.5 352.76 165.49 350.55 184.48 350.55"/>
    <polygon points="176.55 239.95 189.09 239.95 189.09 242.16 176.55 242.16 176.55 246.22 178.61 246.56 178.21 248.8 165.86 248.8 165.86 250.64 174.34 250.64 174.34 252.86 176.56 252.85 176 255.07 165.86 255.07 165.86 256.91 167.73 257.07 168.07 259.12 172.13 259.12 172.13 261.33 150.75 261.33 150.75 256.91 159.23 256.91 159.23 250.64 163.28 250.64 163.28 248.8 161.23 248.45 161.07 244.37 157.01 244.38 157.02 242.16 154.8 242.16 155.15 240.11 173.97 239.95 174.13 238.09 176.39 238.09 176.55 239.95"/>
    <polygon points="225.22 171.75 225.22 174.33 223.37 174.33 223.38 176.18 218.58 176.18 218.58 174.33 210.47 174.33 210.47 193.13 212.34 193.29 212.63 199.16 210.7 199.72 210.1 195.34 207.89 195.35 207.89 191.29 206.04 191.29 206.04 189.07 207.9 188.86 207.89 185.02 206.04 185.02 206.05 182.81 193.14 182.81 193.14 180.6 206.05 180.6 206.05 174.33 189.27 174.33 188.68 173.04 189.27 171.75 225.22 171.75"/>
    <polygon points="229.64 165.48 229.64 169.91 227.06 169.91 227.06 167.69 206.42 167.69 206.42 169.91 195.36 169.91 195.36 167.69 188.72 167.69 189.27 165.48 229.64 165.48"/>
    <polygon points="185.03 344.28 185.03 346.5 189.09 346.49 189.09 348.71 161.62 348.71 161.07 346.49 165.5 346.5 165.49 344.28 185.03 344.28"/>
    <polygon points="136 256.91 136 259.12 142.27 259.12 142.27 261.33 114.25 261.33 114.25 259.12 118.67 259.12 119.23 256.91 136 256.91"/>
    <polygon points="189.09 337.65 189.09 340.23 185.03 340.22 185.03 342.07 171.76 342.07 171.76 340.23 161.62 340.23 161.03 338.94 161.62 337.65 189.09 337.65"/>
    <polygon points="131.95 263.55 131.94 265.39 136 265.39 136 267.97 110.19 267.97 110.19 265.39 116.46 265.39 116.46 263.55 131.95 263.55"/>
    <polygon points="178.77 325.11 189.09 325.11 189.09 327.32 178.77 327.32 178.61 329.19 170.15 329.48 169.55 327.32 163.28 327.32 163.28 325.11 171.76 325.11 172.11 323.06 178.61 323.24 178.77 325.11"/>
    <polygon points="189.09 331.38 189.09 333.59 182.82 333.59 182.82 335.8 167.71 335.8 167.71 333.59 165.49 333.59 165.49 331.38 189.09 331.38"/>
    <rect x="173.97" y="397.37" width="15.12" height="4.42"/>
    <polygon points="223 180.6 223 178.38 225.22 178.38 225.21 180.6 229.06 180.6 229.27 178.38 231.64 178.38 231.85 180.6 240.33 180.6 240.17 182.46 216.53 182.46 216.37 180.6 223 180.6"/>
    <polygon points="159.6 231.47 169.92 231.47 169.92 233.68 152.59 233.68 152.59 231.47 154.8 231.47 155.41 229.31 159.25 229.42 159.6 231.47"/>
    <polygon points="191.3 391.1 191.3 393.32 187.24 393.31 186.69 395.53 178.4 395.53 178.4 391.1 191.3 391.1"/>
    <polygon points="251.02 195.34 233.7 195.34 233.7 193.13 250.47 193.13 250.96 193.75 251.02 195.34"/>
    <polygon points="238.3 199.4 250.47 199.4 251.06 200.69 250.47 201.98 238.3 201.98 237.72 200.69 238.3 199.4"/>
    <polygon points="174.34 225.2 174.34 227.42 161.62 227.42 161.13 226.8 161.07 225.2 174.34 225.2"/>
    <polygon points="220.79 189.08 220.79 186.86 223.01 186.87 223.22 184.65 225.22 184.65 225.21 186.87 229.64 186.86 229.64 189.08 220.79 189.08"/>
    <rect x="206.05" y="212.3" width="10.69" height="2.21"/>
    <rect x="171.76" y="233.68" width="8.85" height="2.21"/>
    <polygon points="199.78 272.02 199.78 274.24 191.48 274.24 190.99 273.62 190.93 272.02 199.78 272.02"/>
    <polygon points="227.61 171.75 233.51 171.75 234.1 173.04 233.51 174.33 227.61 174.33 227.02 173.04 227.61 171.75"/>
    <rect x="207.89" y="259.12" width="7" height="2.21"/>
    <polygon points="195.72 152.95 195.56 154.81 189.32 155.11 188.72 152.95 195.72 152.95"/>
    <rect x="233.7" y="186.86" width="6.64" height="2.21"/>
    <polygon points="161.68 218.62 165.52 218.73 165.7 220.81 161.42 220.99 161.68 218.62"/>
    <rect x="223" y="193.13" width="4.43" height="2.22"/>
    <polygon points="174.34 99.49 174.34 102.07 146.88 102.07 146.29 100.78 146.88 99.49 174.34 99.49"/>
    <polygon points="150.75 93.22 150.75 91.01 152.75 91.01 152.96 93.22 163.65 93.22 163.65 95.44 137.84 95.44 137.84 93.22 150.75 93.22"/>
    <polygon points="161.44 86.96 161.44 89.17 146.88 89.17 146.38 88.55 146.32 86.96 161.44 86.96"/>
    <rect x="176.19" y="67.79" width="8.85" height="2.21"/>
    <rect x="167.71" y="93.22" width="6.64" height="2.21"/>
    <polygon points="169.92 106.13 169.92 108.34 163.83 108.34 163.34 107.73 163.28 106.13 169.92 106.13"/>
    <polygon points="185.03 106.13 184.43 108.29 180.29 107.73 180.24 106.13 185.03 106.13"/>
    <polygon points="138.21 86.96 137.61 89.12 133.47 88.56 133.42 86.96 138.21 86.96"/>
    <polygon points="178.77 59.31 178.16 61.47 174.03 60.91 173.97 59.31 178.77 59.31"/>
    <path d="M157.39,106.13l-.34,2.05c-.57.26-1.71.34-2.08-.19l-.16-1.86h2.58Z"/>
    <rect x="140.05" y="86.96" width="2.22" height="2.22"/>
    <polygon points="278.67 437.92 278.51 439.79 266.01 440.08 265.4 437.92 278.67 437.92"/>
    <polygon points="261.71 437.92 261.55 439.79 255.31 440.08 254.71 437.92 261.71 437.92"/>
    <rect x="305.95" y="74.05" width="2.22" height="2.22"/>
    <polygon points="220.79 102.07 220.79 99.49 239.78 99.49 240.37 100.78 239.78 102.07 220.79 102.07"/>
    <polygon points="210.47 99.49 210.47 102.07 202.18 102.07 201.59 100.78 202.18 99.49 210.47 99.49"/>
    <rect x="203.83" y="93.22" width="8.85" height="2.21"/>
    <rect x="206.05" y="112.39" width="6.64" height="2.21"/>
    <rect x="195.36" y="93.22" width="6.64" height="2.21"/>
    <rect x="235.54" y="112.39" width="4.8" height="2.22"/>
    <rect x="223" y="112.39" width="4.43" height="2.22"/>
    <polygon points="218.95 106.13 218.95 108.34 216.53 107.99 216.37 106.13 218.95 106.13"/>
    <path d="M204.2,106.13l-.34,2.05c-.57.26-1.71.34-2.08-.19l-.16-1.86h2.58Z"/>
    <rect x="388.9" y="231.47" width="11.06" height="4.42"/>
    <polygon points="388.9 242.16 388.9 239.95 390.75 239.95 391.09 237.9 393.33 237.74 393.33 239.95 399.41 239.95 399.96 242.16 388.9 242.16"/>
    <polygon points="391.3 248.8 390.74 244.37 393.33 244.37 393.33 246.22 399.41 246.22 400 247.51 399.41 248.8 391.3 248.8"/>
    <rect x="403.65" y="231.47" width="4.8" height="4.43"/>
    <polygon points="408.44 242.17 403.65 242.16 403.99 240.11 405.86 239.95 405.86 237.74 408.28 238.08 408.44 242.17"/>
    <polygon points="402.04 246.27 405.88 246.38 406.07 248.46 401.78 248.64 402.04 246.27"/>
    <rect x="388.9" y="218.57" width="4.43" height="2.58"/>
    <polygon points="412.5 265.39 412.5 267.97 410.08 267.63 409.9 266.32 410.26 265.55 412.5 265.39"/>
    <polygon points="414.34 267.97 414.34 265.39 416.76 265.73 416.94 267.04 416.57 267.81 414.34 267.97"/>
    <path d="M404.25,265.43c2.08-.7,2.58,1.71,1.63,2.38-1.92,1.36-3.2-1.85-1.63-2.38Z"/>
    <polygon points="399.96 225.2 399.62 227.26 397.38 227.42 397.38 225.2 399.96 225.2"/>
    <rect x="399.59" y="272.02" width="2.22" height="2.22"/>
    <polygon points="276.46 167.69 259.13 167.69 259.13 165.48 275.91 165.48 276.4 166.1 276.46 167.69"/>
    <rect x="252.5" y="159.21" width="15.48" height="2.21"/>
    <rect x="269.82" y="159.21" width="15.12" height="2.21"/>
    <polygon points="287.15 167.69 282.36 167.69 282.41 166.09 286.55 165.53 287.15 167.69"/>
    <polygon points="274.25 171.75 274.25 174.33 271.83 173.99 271.65 172.68 272.01 171.91 274.25 171.75"/>
    <rect x="278.3" y="165.48" width="2.22" height="2.22"/>
    <polygon points="348.96 218.62 352.79 218.73 352.98 220.81 348.7 220.99 348.96 218.62"/>
    <rect x="293.05" y="140.04" width="11.06" height="2.21"/>
    <polygon points="308.17 146.31 308.17 148.52 299.32 148.52 299.38 146.93 299.87 146.31 308.17 146.31"/>
    <polygon points="312.59 127.14 312.59 129.72 307.96 129.38 308.14 127.3 312.59 127.14"/>
    <polygon points="302.14 127.19 305.97 127.3 306.16 129.38 301.88 129.56 302.14 127.19"/>
    <rect x="307.79" y="140.04" width="4.8" height="2.22"/>
    <polygon points="295.26 129.72 295.26 127.14 297.68 127.48 297.86 128.79 297.5 129.56 295.26 129.72"/>
    <rect x="314.43" y="159.21" width="2.58" height="2.22"/>
    <rect x="316.64" y="165.48" width="2.22" height="2.22"/>
    <polygon points="348.9 171.75 361.07 171.75 361.66 173.04 361.07 174.33 348.9 174.33 348.31 173.04 348.9 171.75"/>
    <rect x="342.08" y="159.21" width="11.06" height="2.21"/>
    <rect x="354.61" y="186.86" width="2.58" height="2.22"/>
    <rect x="250.65" y="140.04" width="19.54" height="2.21"/>
    <rect x="229.27" y="140.04" width="13.27" height="2.21"/>
    <polygon points="312.59 239.95 312.59 242.17 310.01 242.16 310.35 240.11 312.59 239.95"/>
    <rect x="289" y="93.22" width="10.69" height="2.21"/>
    <polygon points="255.08 244.37 255.08 248.8 252.84 248.64 252.5 244.37 255.08 244.37"/>
  </g>
</svg>
