<?xml version="1.0" encoding="UTF-8"?>
<svg xmlns="http://www.w3.org/2000/svg" viewBox="0 0 512 512">
  <circle fill="#23f019" cx="256" cy="256" r="256"/>
  <polygon fill="#fff" points="431.75 197.42 431.75 182.77 428.5 182.77 428.5 168.12 425.25 168.12 425.25 155.1 421.99 155.1 421.99 143.71 418.74 143.71 418.74 137.2 415.48 137.2 415.48 130.69 412.22 130.7 412.23 127.44 408.97 127.44 408.97 124.18 405.72 124.18 405.72 117.67 402.46 117.68 402.46 114.42 399.21 114.42 399.21 111.16 395.95 111.17 395.95 107.91 392.7 107.91 392.7 104.65 389.44 104.66 389.45 101.4 386.19 101.4 386.19 98.14 382.93 98.15 382.93 94.89 376.42 94.89 376.43 91.64 373.17 91.64 373.17 88.38 366.66 88.38 366.66 85.13 360.15 85.13 360.15 81.87 353.64 81.87 353.64 78.62 343.88 78.62 343.88 75.36 337.37 75.36 337.37 72.11 327.6 72.11 327.6 68.85 317.84 68.85 317.84 65.6 239.73 65.6 239.73 68.85 213.69 68.85 213.69 65.6 210.43 65.6 210.44 62.34 207.18 62.35 207.18 59.09 197.42 59.09 197.42 55.84 187.65 55.84 187.65 52.58 164.87 52.58 164.87 55.84 161.61 55.84 161.61 65.6 155.1 65.6 155.1 62.34 142.08 62.34 142.08 59.09 135.58 59.09 135.58 62.34 129.07 62.34 129.07 65.6 119.3 65.6 119.3 68.85 109.54 68.85 109.54 72.11 106.28 72.11 106.28 81.87 109.54 81.87 109.54 91.64 112.79 91.64 112.79 98.15 116.05 98.14 116.05 101.4 119.3 101.4 119.3 104.66 122.56 104.65 122.55 107.91 125.81 107.91 125.81 111.17 129.07 111.17 129.07 117.67 125.81 117.67 125.81 124.18 122.55 124.18 122.56 127.44 119.3 127.44 119.3 189.28 116.05 189.28 116.05 202.3 112.79 202.3 112.79 215.32 109.54 215.32 109.54 238.1 112.79 238.1 112.79 241.36 116.05 241.35 116.05 244.61 112.79 244.61 112.79 251.12 109.54 251.12 109.54 254.37 106.28 254.37 106.28 260.88 103.03 260.88 103.03 267.39 99.77 267.39 99.77 273.9 96.52 273.9 96.52 280.41 93.26 280.41 93.26 286.92 90.01 286.92 90.01 293.43 86.75 293.43 86.75 299.94 83.5 299.94 83.5 303.2 80.25 303.19 80.25 322.72 83.5 322.72 83.5 329.23 89.58 329.23 89.55 332.35 116.05 332.49 116.05 348.76 119.3 348.76 119.3 355.27 122.56 355.27 122.56 368.29 125.81 368.29 125.81 371.54 132.32 371.54 132.32 374.8 135.58 374.8 135.57 378.05 138.83 378.05 138.84 381.1 135.57 381.3 135.58 384.56 132.32 384.56 132.32 391.07 129.07 391.07 129.07 404.09 132.32 404.09 132.32 413.85 135.58 413.85 135.57 417.11 138.83 417.11 138.83 420.36 145.34 420.36 145.34 423.62 174.63 423.62 174.63 420.36 194.16 420.36 194.16 449.66 197.42 449.65 197.42 452.91 207.18 452.91 207.18 456.16 223.45 456.16 223.45 459.42 285.29 459.42 285.29 456.16 298.31 456.16 298.31 452.91 311.33 452.91 311.33 449.66 321.09 449.66 321.09 446.4 327.6 446.4 327.6 443.15 337.37 443.15 337.37 439.89 343.88 439.89 343.88 436.64 350.39 436.64 350.39 433.38 356.9 433.38 356.89 430.13 360.15 430.13 360.15 426.87 366.66 426.87 366.66 423.62 369.92 423.62 369.92 417.11 366.66 417.11 366.66 407.34 363.41 407.34 363.41 381.31 366.66 381.31 366.66 374.8 369.92 374.8 369.92 368.29 373.17 368.29 373.17 361.78 376.42 361.78 376.42 355.27 379.68 355.27 379.68 352.01 382.93 352.01 382.93 345.5 386.19 345.51 386.19 342.25 389.44 342.25 389.44 335.74 392.7 335.74 392.7 329.23 395.95 329.23 395.95 319.47 399.21 319.47 399.21 312.96 402.46 312.96 402.46 306.45 405.72 306.45 405.72 303.19 408.97 303.2 408.97 299.94 415.48 299.94 415.48 296.68 418.74 296.68 418.74 290.17 421.99 290.17 421.99 270.65 425.25 270.65 425.25 266.77 421.99 266.77 421.99 257.63 425.25 257.63 425.25 247.86 428.5 247.86 428.5 234.84 431.75 234.84 431.75 221.48 434.58 221.48 434.58 197.42 431.75 197.42"/>
  <g>
    <path d="M119.3,127.44h3.26s0-3.26,0-3.26h3.26s0-6.51,0-6.51h3.25v-6.51h-3.26s0-3.26,0-3.26h-3.26s0-3.25,0-3.25h-3.26s0-3.25,0-3.25h-3.26s0-3.25,0-3.25h-3.26s0-6.51,0-6.51h-3.25v-9.76h-3.25v-9.76h3.26s0-3.25,0-3.25h9.76v-3.25h9.76v-3.25h6.51v-3.25h6.51v3.25h13.02v3.25h6.51v-9.76h3.26s0-3.25,0-3.25h22.78v3.25h9.76v3.25h9.76v3.26s3.26,0,3.26,0v3.26s3.25,0,3.25,0v3.26s26.04,0,26.04,0v-3.25h78.11v3.25h9.76v3.25h9.76v3.25h6.51v3.25h9.76v3.25h6.51v3.25h6.51v3.25h6.51v3.26s3.26,0,3.26,0v3.26s6.51,0,6.51,0v3.26s3.26,0,3.26,0v3.26s3.25,0,3.25,0v3.26s3.25,0,3.25,0v3.26s3.25,0,3.25,0v3.26s3.25,0,3.25,0v3.26s3.25,0,3.25,0v3.26s3.25,0,3.25,0v6.51h3.26s0,3.26,0,3.26h3.26s0,3.25,0,3.25h3.26s0,6.51,0,6.51h3.25v6.51h3.25v11.38h3.25v13.03h3.25v14.65h3.25v14.64h2.83v24.07h-2.83v13.36h-3.25v13.02h-3.25v9.76h-3.25v5.99h3.25v19.66h-3.25v6.9h-3.25v6.51h-3.26s0,3.25,0,3.25h-6.51v3.26s-3.26,0-3.26,0v3.26s-3.25,0-3.25,0v6.51h-3.25v6.51h-3.25v9.76h-3.25v6.51h-3.25v6.51h-3.26s0,3.26,0,3.26h-3.26s0,6.51,0,6.51h-3.26s0,3.26,0,3.26h-3.26s0,6.51,0,6.51h-3.25v6.51h-3.25v6.51h-3.25v6.51h-3.25v26.04h3.25v9.76h3.25v6.51h-3.26s0,3.25,0,3.25h-6.51v3.26s-3.26,0-3.26,0v3.26s-6.51,0-6.51,0v3.25h-6.51v3.25h-6.51v3.25h-9.76v3.25h-6.51v3.25h-9.76v3.25h-13.02v3.25h-13.02v3.25h-61.84v-3.25h-16.27v-3.25h-9.76v-3.26s-3.25,0-3.25,0v-29.29h-19.53v3.25h-29.29v-3.25h-6.51v-3.26s-3.26,0-3.26,0v-3.26s-3.25,0-3.25,0v-9.76h-3.25v-13.02h3.25v-6.51h3.26s0-3.26,0-3.26l3.26-.21v-3.05s-3.26,0-3.26,0v-3.26s-3.25,0-3.25,0v-3.26s-6.51,0-6.51,0v-3.26s-3.25,0-3.25,0v-13.02h-3.25v-6.51h-3.25v-16.27l-26.5-.13.03-3.12h-6.08v-6.51h-3.25v-19.53h3.26s0-3.26,0-3.26h3.26s0-6.51,0-6.51h3.25v-6.51h3.25v-6.51h3.25v-6.51h3.25v-6.51h3.25v-6.51h3.25v-6.51h3.26s0-3.26,0-3.26h3.26s0-6.51,0-6.51h3.26s0-3.26,0-3.26h-3.26s0-3.25,0-3.25h-3.26s0-22.78,0-22.78h3.25v-13.02h3.25v-13.02h3.25v-61.84ZM187.65,59.09h-16.27v3.25h16.27v-3.25ZM168.12,81.87c-1.08-.02-2.17.02-3.25,0v-9.76h-6.51v-3.25h-16.27v-3.25h-9.76v3.26s3.26,0,3.26,0v3.26s3.25,0,3.25,0v3.26s16.27,0,16.27,0v3.25h6.51v3.25h-16.27v-3.25h-16.27v-3.25h-13.02v-3.26s-3.26,0-3.26,0v3.26s-3.25,0-3.25,0v3.05s3.26.21,3.26.21v6.51h3.26s0,3.26,0,3.26h3.26s0,6.51,0,6.51h3.26s0,3.26,0,3.26h3.26s0,3.25,0,3.25h6.51v3.26s3.26,0,3.26,0v3.26s13.02,0,13.02,0v3.26s3.26,0,3.26,0v3.26s19.53,0,19.53,0v3.25h-9.76v3.25h29.29v-16.27h-3.25v-13.02h-13.02v-6.51h-6.51c0-1.08,0-2.17,0-3.25,15.17.3,30.39-.23,45.57,0v-3.26h-6.51v-3.26s3.26,0,3.26,0v-3.26h-16.28v-3.25h9.76v-3.25h-35.8v3.25h16.27v3.25h-16.27v3.25h9.76v3.25h-9.76c0,1.08,0,2.17,0,3.25ZM334.11,81.87c0-1.08,0-2.17,0-3.25h-9.76v-3.25h-9.76v-3.25h-71.6v3.25h-6.51v6.51h3.26s0-3.25,0-3.25h6.51v3.25h9.76v3.25h-22.78v-3.25h-6.51v-3.25h-6.51v3.26s3.26,0,3.26,0v3.26s6.51,0,6.51,0v6.51h6.51v3.25h6.51v3.25h6.51v3.26s3.25,0,3.25,0v6.51h3.26c0,1.08,0,2.17,0,3.25-3.25-.06-6.52.05-9.77,0v-3.26s3.26-.21,3.26-.21v-3.05s-3.26,0-3.26,0v-3.26s-3.25,0-3.25,0v3.26s-3.25,0-3.25,0v-6.51h-6.51v-3.25h-6.51v-3.25h-19.53c0-1.08,0-2.17,0-3.25,2.17-.01,4.35,0,6.51,0v-3.26h-6.51v3.25c-4.33.03-8.69.08-13.02,0,0-1.08,0-2.17,0-3.26h-3.26v3.26c1.08.01,2.18-.02,3.26,0,0,1.08,0,2.17,0,3.26h-3.26s0,9.76,0,9.76h3.25v6.51h3.26s0,3.25,0,3.25h-3.26v3.26h9.77v3.26s3.26,0,3.26,0v3.26s9.76,0,9.76,0v3.25h6.51v3.25h9.76v3.25h13.02v3.25h13.02v-3.25h-6.51v-3.25h9.76v-3.25h-6.51v-6.51h-3.26s0-3.05,0-3.05l3.26-.21c0-1.08,0-2.17,0-3.26,1.08.02,2.18-.02,3.26,0v6.51s3.25,0,3.25,0v3.26s3.25,0,3.25,0v3.26s3.25,0,3.25,0v3.26s3.25,0,3.25,0v3.26s3.25,0,3.25,0v3.26s3.25,0,3.25,0v-9.76h-3.26s0-3.26,0-3.26h3.26s0-3.05,0-3.05l-3.26-.21v-3.05s3.26-.21,3.26-.21v-3.26h-6.51v-3.26s3.26,0,3.26,0v-3.26h-13.02v-3.25h9.76v-3.26s-3.26,0-3.26,0v-3.26s-6.51,0-6.51,0v-3.25h-6.51v-3.25h94.39v-3.25h-13.02v-3.26c-1.08-.01-2.17.02-3.25,0v3.26s-22.78,0-22.78,0v-3.26c7.59.11,15.2-.15,22.78,0ZM340.62,91.64h-68.35v3.25h9.76v3.26s-3.26,0-3.26,0v3.26h26.04v3.25h-6.51v3.25h48.82v-3.25h-35.8v-3.25h29.29v-3.25h-32.55v-3.25h32.55v-3.25ZM350.39,91.64h-6.51v3.25h6.51v-3.25ZM288.55,104.65h-3.26v3.26h3.26v-3.26ZM298.31,111.17h-13.02v3.25h13.02v-3.25ZM334.11,111.17h-26.04v3.25h26.04v-3.25ZM116.05,231.59h3.25v6.51h6.51v-3.26s-3.26,0-3.26,0v-3.26h6.51v-3.26s-3.26,0-3.26,0v-3.26h16.28v6.51h9.76v3.25h-9.76v3.25h45.57v3.25h-45.57v3.25h6.51v3.25h-6.51v3.26s3.26,0,3.26,0v3.26h-22.78v-3.25h9.76v-3.25h-13.02v6.51h-3.25v6.51h-3.26s0,3.25,0,3.25h22.78v3.25h-26.04v3.25h26.04v3.25h-9.76v3.25h13.02v3.25h-9.76v3.25h9.76v3.25h-13.02v3.25h9.76v3.25h-9.76v3.25h9.76v3.25h-19.53v3.25h22.78v3.25h-26.04v3.25h26.04v3.26s-3.26,0-3.26,0v3.05s3.26.21,3.26.21v3.26h-3.26s0,3.05,0,3.05l3.26.21v3.26h-9.77v3.25h6.51v3.25h-9.76v19.53h6.51v3.25h29.29v3.25h-32.55v3.25h29.29v3.25h-26.04v3.25h13.02v3.26s-3.26.21-3.26.21v3.05s3.26,0,3.26,0v9.76h-3.26s0,3.26,0,3.26h-3.26s0,3.25,0,3.25h-3.26s0,3.25,0,3.25l3.26.21v3.05s-3.26,0-3.26,0v3.26s3.26,0,3.26,0v6.51h3.26s0,3.26,0,3.26h3.26s0,3.25,0,3.25h9.76v-3.26s-3.26,0-3.26,0v-3.26h32.55v-3.25h-16.27v-3.25h32.55v-3.25h-6.51v-3.25h19.53v-6.51h6.51v-3.26s-3.26,0-3.26,0v-3.26h6.51v-3.26s-3.26,0-3.26,0v-3.26h13.02v-3.25h-13.02v-3.25h29.29v-3.25h-29.29v-3.25h26.04v-3.25h-26.04v-3.25h29.29v-3.25h-29.29v-3.25h19.53v-3.25h-22.78v-3.25h16.27v-3.25h-19.53v-3.25h16.27v-3.25h-16.27v-3.25h9.76v-3.25h-16.27v-3.25h9.76v-3.25h-42.31v-3.25h39.06v-3.25h-32.55v-3.25h29.29v-3.25h-16.27v-3.25h13.02v-3.25h-13.02v-3.25h13.02v-3.25h-13.02v-3.25h16.27v-3.25h-16.27v-3.25h16.27v-3.25h-19.53v-3.25h22.78v-3.25h-6.51v-3.25h13.02v-3.25h-19.53v-3.25h29.29v-3.25h-19.53v-3.25h16.27v-3.25h-29.29v-3.25h26.04v-3.25h-32.55v-3.25h35.8v-3.25h-29.29v-3.25h61.84v-3.25h-52.08v-3.25h68.35v-3.25h-9.76v-3.25h9.76v-3.25h-68.35v-3.25h68.35v-3.25h-45.57v-3.25h35.8v-3.25h-35.8v-3.25h39.06v-3.25h-16.27v-3.26s3.26,0,3.26,0v-3.05s-3.26-.21-3.26-.21v-3.26h13.02v-3.26s-6.51,0-6.51,0c0-1.08.01-2.17,0-3.26,9.75-.19,19.54.14,29.29,0v3.26s9.76,0,9.76,0v-3.25h6.51v-3.26s3.26,0,3.26,0v-3.26s6.51,0,6.51,0v-3.25h-6.51v-3.25h-6.51v-3.26s-3.26,0-3.26,0v-3.26s-3.25,0-3.25,0v-3.26s-3.25,0-3.25,0v-6.51h-3.26s0-3.26,0-3.26h-3.26s0-3.25,0-3.25h-39.06v3.25h-6.51v3.26s-3.26,0-3.26,0v3.26s3.26,0,3.26,0v3.26s3.25,0,3.25,0v3.26s3.25,0,3.25,0v6.51h3.26s0,3.26,0,3.26h3.26s0,3.25,0,3.25h3.26s0,3.25,0,3.25h3.26c0,1.08-.01,2.17,0,3.25-1.08.02-2.18-.02-3.26,0v3.26s-13.02,0-13.02,0v-3.25h9.76v-3.25h-6.51v-6.51h-6.51v-6.51h-48.82v-3.25h45.57v-3.26s-3.26,0-3.26,0v-3.26c-1.08-.01-2.17.02-3.25,0,0,1.08,0,2.17,0,3.26h-39.06v-3.26c13.01.19,26.05-.25,39.06,0,0-1.08,0-2.17,0-3.26h-22.79s0-3.25,0-3.25h9.76c0-1.08,0-2.17,0-3.25,3.25,0,6.52.02,9.76,0M125.81,199.04h-3.26s0,3.26,0,3.26h-3.26s0,3.25,0,3.25v3.25s0,6.51,0,6.51h-3.26M229.96,150.22c1.08-.02,2.18.02,3.26,0v-3.26s16.27,0,16.27,0v-3.25h6.51v3.25h26.04v-6.51h-3.26s0-3.25,0-3.25h-42.31v-3.25h-9.76v-3.25h-9.76v-3.25h-9.76v-3.25h-6.51v-3.25h-6.51v3.26s-3.26,0-3.26,0v3.26s3.26,0,3.26,0v3.26s3.25,0,3.25,0v3.26s6.51,0,6.51,0v3.25h6.51v3.25h16.27v3.25h-19.53v3.26s9.77,0,9.77,0v3.26c-8.68.02-17.37-.02-26.04,0v-3.26h13.02v-3.25h-16.27v-3.26s3.26,0,3.26,0v-3.26h-16.28v-3.25h9.76v-3.25h-16.27v-3.25h13.02v-3.25h-19.53v3.26s3.26,0,3.26,0v3.05s-3.26.21-3.26.21v3.26h6.51v3.25h-19.53v-3.25h9.76v-3.25h-6.51v-9.76h-3.26s0-3.25,0-3.25h-13.02v6.51h-6.51v3.26s3.26,0,3.26,0v3.26h-6.51v13.02M327.6,182.77c2.16-.03,4.35.02,6.51,0v-3.05s-3.26-.21-3.26-.21v-3.26s-3.25,0-3.25,0v-3.26s3.26-.21,3.26-.21v-3.05s-3.27-.21-3.27-.21v-3.05s3.26,0,3.26,0v-3.26s-3.26,0-3.26,0v-6.51h-3.25v-13.02h-3.26s0-3.05,0-3.05l3.26-.21v-3.26h-6.51v-6.51h-6.51v-6.51h-3.26s0-3.26,0-3.26h-3.26s0-3.25,0-3.25h-22.78v3.25h19.53v3.25h-19.53v3.26s3.26,0,3.26,0v3.05s-3.26.21-3.26.21v3.26h9.77v3.25h-6.51v3.26s3.25,0,3.25,0v6.51h3.26s0,3.26,0,3.26h3.26s0,3.25,0,3.25h13.02v3.25h-13.02v3.25h16.27v3.25h-9.76v3.25h9.76v6.51h6.51v3.25h6.51v3.26s3.26,0,3.26,0c0,1.08-.01,2.17,0,3.26-2.16.03-4.35-.02-6.51,0v6.51h-9.76v3.25h16.27v3.25h-29.29v3.25h16.27v3.25h-6.51v3.25h9.76v3.26s-3.26,0-3.26,0v3.26h9.77v3.26s-3.26,0-3.26,0v3.26h6.51v3.26s3.26,0,3.26,0v3.26s3.25,0,3.25,0v3.26s9.76,0,9.76,0v3.25h32.55v-3.25h-19.53v-3.25h16.27v-3.25h-16.27v-3.25h13.02v-3.25h-9.76v-3.26s3.26,0,3.26,0v-3.26h-6.51v-6.51h-3.25v-6.51h-13.02v-3.26s3.26,0,3.26,0c.01-1.08-.02-2.18,0-3.26,2.16.03,4.35-.02,6.51,0v3.26s6.51,0,6.51,0v3.26s3.26,0,3.26,0v3.26s3.25,0,3.25,0v6.51h16.27v-3.25h-13.02v-3.25h9.76v-3.25h-9.76v-3.25h9.76v-3.25h-9.76v-3.25h6.51v-3.26s-3.26,0-3.26,0v-3.05s3.26-.21,3.26-.21v-3.26h-6.51v-6.51h-6.51v-6.51h-3.25v-6.51h-6.51v-3.26s-3.26,0-3.26,0v-3.26s-13.02,0-13.02,0v3.26s3.26.21,3.26.21v3.05s-3.26,0-3.26,0v9.76h3.25v13.02h3.26s0,3.26,0,3.26h3.26c-.03,2.16.04,4.34,0,6.51-2.16-.03-4.35.02-6.51,0v-3.26s-9.76,0-9.76,0c0-1.08.01-2.17,0-3.26ZM337.37,117.67h-3.26v3.26h3.26v-3.26ZM337.37,130.69h-3.26v3.26h3.26v-3.26ZM340.62,137.2h-9.76v3.25h9.76v-3.25ZM353.64,143.71h-6.51v3.25h6.51v-3.25ZM317.84,182.77h-6.51v3.25h6.51v-3.25ZM265.76,195.79h-6.51v3.25h6.51v-3.25ZM282.04,195.79h-9.76v3.25h9.76v-3.25ZM291.8,195.79h-6.51v3.25h6.51v-3.25ZM298.31,202.3h-6.51v3.25h6.51v-3.25ZM392.7,202.3h-3.25v6.51h-3.25v6.51h-13.02v3.25h9.76v3.25h-6.51v3.26s3.25,0,3.25,0v9.76h-35.8v3.25h32.55v3.25h-19.53v3.26s3.26,0,3.26,0v3.26h-9.77v3.26s3.26,0,3.26,0v3.26h-6.51v6.51h-3.26s0,3.05,0,3.05l3.26.21v6.51h9.76v3.25h-6.51v3.25h22.78v3.25h-9.76v3.25h6.51v3.26s3.26,0,3.26,0v3.26s6.51,0,6.51,0v-6.51h3.26s0-3.26,0-3.26l-3.26-.21v-3.05s3.26,0,3.26,0v-3.26h-16.28v-3.25h26.04v3.25h-6.51v3.25h9.76v3.26s-3.26,0-3.26,0v3.26h6.51v3.25h-9.76v3.25h6.51v3.26s3.26,0,3.26,0v3.26s13.02,0,13.02,0v-3.25h-9.76v-3.25h13.02v-3.25h-13.02v-3.25h16.27v-3.26s-3.26-.21-3.26-.21v-3.05s3.27-.21,3.27-.21v-3.05s-3.26,0-3.26,0v-3.26s3.26,0,3.26,0v-6.51h-3.26s0-3.25,0-3.25h-9.76v-3.26s3.26,0,3.26,0v-3.05s-3.26-.21-3.26-.21v-3.26h3.26s0-3.05,0-3.05l-3.26-.21v-3.26s3.26,0,3.26,0v-9.76h-9.76v-3.25h9.76v-3.25h-9.76v-3.25h6.51v-3.25h-9.76v-3.25h6.51v-3.25h-9.76v-3.26s3.26-.21,3.26-.21v-3.05s-3.26,0-3.26,0v-6.51ZM301.57,208.81h-6.51v3.25h6.51v-3.25ZM379.68,208.81h-13.02v3.25h13.02v-3.25ZM301.57,215.32h-6.51v3.25h6.51v-3.25ZM304.82,221.82h-3.26v3.26h3.26v-3.26ZM285.29,264.14c.08-4.33-.06-8.69,0-13.02h3.26s0-6.51,0-6.51h3.26s0-3.25,0-3.25h6.51v-3.25h19.53v-3.25h-6.51v-3.26s-3.26,0-3.26,0v-3.26s-3.25,0-3.25,0l-.21,3.26h-3.05s0-3.26,0-3.26h-3.26s0,3.26,0,3.26h-6.51v3.25h-6.51v3.26s-3.26,0-3.26,0v3.26s-9.76,0-9.76,0v3.25h6.51v3.26s-3.25,0-3.25,0v13.02h3.26s0,3.26,0,3.26c2.16.02,4.35-.03,6.51,0-.02,1.08.02,2.18,0,3.26h-9.77s0,3.25,0,3.25h16.27v-6.51c-2.16-.02-4.35.03-6.51,0ZM278.78,234.84h-9.76v3.25h9.76v-3.25ZM129.07,241.35h-9.76v3.25h9.76v-3.25ZM259.25,241.35h-26.04v3.25h13.02v3.25h6.51v-3.25h6.51v-3.25ZM314.58,241.35h-9.76v3.25h9.76v-3.25ZM347.13,241.35h-3.26v3.26h3.26v-3.26ZM242.98,247.86h-9.76v3.25h9.76v-3.25ZM317.84,247.86h-19.53v3.25h19.53v-3.25ZM236.47,254.37h-3.26v3.26h3.26v-3.26ZM314.58,254.37h-13.02v3.26s3.26,0,3.26,0v3.05s-3.26.21-3.26.21v3.26h9.77v3.26s-3.26,0-3.26,0v3.26h16.28v-3.25h-9.76v-3.25h9.76v-3.25h-9.76v-6.51ZM324.35,254.37h-6.51v3.25h6.51v-3.25ZM236.47,260.88h-3.26v3.26h3.26v-3.26ZM236.47,267.39h-3.26v3.26h3.26v-3.26ZM119.3,273.9h-13.02v6.51h-3.26s0,3.25,0,3.25h9.76v-3.26s-3.26,0-3.26,0v-3.26h9.77v-3.25ZM275.53,273.9h-9.76v3.25h9.76v-3.25ZM282.04,273.9h-3.26v3.26h3.26v-3.26ZM295.06,273.9h-3.26v3.26h3.26v-3.26ZM295.06,325.98c0-1.08,0-2.17,0-3.25h13.02v-6.51h3.25v-6.51h3.26s0-3.25,0-3.25h-22.78v-3.25h13.02v-3.25h-6.51v-3.25h13.02v-3.26s-3.26,0-3.26,0v-3.26h6.51v-6.51h3.25v-6.51h3.26s0-3.25,0-3.25h-9.76v6.51h-9.76v3.26s3.26,0,3.26,0v3.05s-3.26.21-3.26.21v3.26h3.26s0,3.25,0,3.25h-9.76v6.51h-6.51v3.26s-3.25,0-3.25,0v6.51h6.51v3.25h-6.51v3.25h6.51v3.25h-6.51v3.25h6.51v3.26c1.08,0,2.17-.01,3.25,0v3.26s3.26,0,3.26,0v-3.26c-1.08,0-2.17.01-3.26,0ZM334.11,273.9h-3.26v3.26h3.26v-3.26ZM275.53,280.41h-19.53v3.25h19.53v-3.25ZM330.86,280.41h-3.26v3.26h3.26v-3.26ZM106.28,286.92h-6.51v3.25h6.51v-3.25ZM278.78,286.92h-29.29v3.25h29.29v-3.25ZM327.61,286.92h-3.26v3.26h3.26v-3.26ZM103.03,293.43h-6.51v3.25h6.51v-3.25ZM278.78,293.43h-32.55v3.25h32.55v-3.25ZM324.35,293.43h-3.26v3.26h3.26v-3.26ZM103.03,299.94h-9.76v3.25h9.76v-3.25ZM275.53,299.94h-29.29v3.25h29.29v-3.25ZM321.09,299.94h-6.51v3.25h6.51v-3.25ZM99.77,306.45h-13.02v3.25h13.02v-3.25ZM275.53,306.45h-26.04v3.25h26.04v-3.25ZM90.01,312.96h-3.26v3.26h3.26v-3.26ZM275.53,312.96h-29.29v3.25h29.29v-3.25ZM275.53,319.47h-29.29v3.25h29.29v-3.25ZM256,325.98h-13.02v3.25h13.02v-3.25ZM272.27,325.98h-13.02v3.25h13.02v-3.25ZM269.02,332.49h-6.51v3.25h6.51v-3.25ZM324.35,332.48h-3.26v3.26h3.26v-3.26ZM327.6,339h-13.02v3.25h13.02v-3.25ZM330.86,345.5h-19.53v3.25h19.53v-3.25ZM324.35,352.01h-13.02v3.25h13.02v-3.25ZM314.58,358.52h-6.51v3.25h6.51v-3.25ZM311.33,365.03h-9.76v3.25h9.76v-3.25ZM308.08,371.54h-16.27v3.25h16.27v-3.25ZM304.82,378.05h-19.53v3.25h19.53v-3.25ZM301.57,384.56h-22.78v3.25h9.76v3.25h-13.02v3.25h29.29v-3.25h-13.02v-3.25h9.76v-3.25ZM269.02,397.58h-6.51v3.25h6.51v-3.25ZM298.31,397.58h-26.04v3.25h26.04v-3.25ZM324.35,397.58h-3.26v3.26h3.26v-3.26ZM194.16,404.09h-3.26v3.26h3.26v-3.26ZM298.31,404.09h-48.82v3.25h22.78v3.25h-29.29v3.25h26.04v3.25h-32.55v3.26s3.26,0,3.26,0v3.26h-39.06v22.78h6.51v3.25h13.02v3.25h65.09v-3.25h13.02v-3.25h13.02v-3.25h-19.53v-3.25h22.78v3.26s3.05,0,3.05,0l.21-3.26h13.02v-3.25h-39.06v-3.25h6.51v-3.25h-13.02v-3.25h13.02v-3.25h-6.51v-3.25h6.51v-3.25h-22.78v-3.25h22.78v-3.26s-3.26,0-3.26,0v-3.05s3.26-.21,3.26-.21v-3.26ZM324.35,404.09h-6.51v3.25h6.51v-3.25ZM324.35,410.6h-9.76v3.25h9.76v-3.25ZM324.35,417.11h-13.02v3.25h13.02v-3.25ZM324.35,423.62h-19.53v3.25h19.53v-3.25ZM343.88,423.62h-6.51v3.25h6.51v-3.25ZM343.88,430.13h-39.06v3.25h39.06v-3.25Z"/>
    <path d="M229.96,150.22c-1.08.02-2.17,0-3.25,0,0-1.08,0-2.17,0-3.26"/>
    <path fill="#fff" d="M226.71,150.22c-3.25.02-6.52,0-9.76,0,0,1.08,0,2.17,0,3.25h-9.76v3.26s22.78,0,22.78,0c0,1.08,0,2.17,0,3.26-13-.25-26.05.19-39.06,0v3.26h39.06c0-1.08,0-2.17,0-3.26,1.08.02,2.18-.02,3.26,0v3.26s3.25,0,3.25,0v3.26h-45.57v3.25h48.82v6.51h6.51v6.51h6.51v3.25h-9.76v3.25h13.02v-3.26c1.08-.01,2.17.02,3.25,0-.01-1.08,0-2.17,0-3.26h-3.26s0-3.25,0-3.25h-3.26s0-3.25,0-3.25h-3.26s0-3.25,0-3.25h-3.26s0-6.51,0-6.51h-3.26s0-3.26,0-3.26h-3.26s0-3.25,0-3.25h-3.26s0-3.25,0-3.25h3.26s0-3.25,0-3.25h6.51v-3.25h39.06v3.26s3.26,0,3.26,0v3.26s3.25,0,3.25,0v6.51h3.26s0,3.26,0,3.26h3.26s0,3.25,0,3.25h3.26s0,3.25,0,3.25h6.51v3.25h6.51v3.25h-6.51v3.26s-3.26,0-3.26,0v3.26s-6.51,0-6.51,0v3.25h-9.76v-3.26c-9.75.14-19.54-.19-29.29,0,.01,1.08,0,2.17,0,3.26h6.51s0,3.25,0,3.25h-13.02v3.26s3.26.21,3.26.21v3.05s-3.26,0-3.26,0v3.26h16.28v3.25h-39.06v3.25h35.8v3.25h-35.8v3.25h45.57v3.25h-68.35v3.25h68.35v3.25h-9.76v3.25h9.76v3.25h-68.35v3.25h52.08v3.25h-61.84v3.25h29.29v3.25h-35.8v3.25h32.55v3.25h-26.04v3.25h29.29v3.25h-16.27v3.25h19.53v3.25h-29.29v3.25h19.53v3.25h-13.02v3.25h6.51v3.25h-22.78v3.25h19.53v3.25h-16.27v3.25h16.27v3.25h-16.27v3.25h13.02v3.25h-13.02v3.25h13.02v3.25h-13.02v3.25h16.27v3.25h-29.29v3.25h32.55v3.25h-39.06v3.25h42.31v3.25h-9.76v3.25h16.27v3.25h-9.76v3.25h16.27v3.25h-16.27v3.25h19.53v3.25h-16.27v3.25h22.78v3.25h-19.53v3.25h29.29v3.25h-29.29v3.25h26.04v3.25h-26.04v3.25h29.29v3.25h-29.29v3.25h13.02v3.25h-13.02v3.26s3.26,0,3.26,0v3.26h-6.51v3.26s3.26,0,3.26,0v3.26h-6.51v6.51h-19.53v3.25h6.51v3.25h-32.55v3.25h16.27v3.25h-32.55v3.26s3.26,0,3.26,0v3.26h-9.77v-3.26s-3.26,0-3.26,0v-3.26s-3.25,0-3.25,0v-6.51h-3.26s0-3.26,0-3.26h3.26s0-3.05,0-3.05l-3.26-.21v-3.26s3.26,0,3.26,0v-3.26s3.25,0,3.25,0v-3.26s3.25,0,3.25,0v-9.76h-3.26s0-3.05,0-3.05l3.26-.21v-3.26h-13.02v-3.25h26.04v-3.25h-29.29v-3.25h32.55v-3.25h-29.29v-3.25h-6.51v-19.53h9.76v-3.25h-6.51v-3.25h9.76v-3.26s-3.26-.21-3.26-.21v-3.05s3.26,0,3.26,0v-3.26l-3.26-.21v-3.05s3.26,0,3.26,0v-3.26h-26.04v-3.25h26.04v-3.25h-22.78v-3.25h19.53v-3.25h-9.76v-3.25h9.76v-3.25h-9.76v-3.25h13.02v-3.25h-9.76v-3.25h9.76v-3.25h-13.02v-3.25h9.76v-3.25h-26.04v-3.25h26.04v-3.25h-22.78v-3.26s3.25,0,3.25,0v-6.51h3.25v-6.51h13.02v3.25h-9.76v3.25h22.78v-3.26s-3.26,0-3.26,0v-3.26h6.51v-3.25h-6.51v-3.25h45.57v-3.25h-45.57v-3.25h9.76v-3.25h-9.76v-6.51h-16.27v3.26s3.26,0,3.26,0v3.26h-6.51v3.26s3.26,0,3.26,0v3.26h-6.51v-6.51h-3.25v-16.28s3.25,0,3.25,0v-13.02s3.26,0,3.26,0v-3.26s3.25,0,3.25,0v-49.03s0-3.05,0-3.05v-3.25s0-13.02,0-13.02h6.51v-3.26s-3.26,0-3.26,0v-3.26h6.51v-6.51h13.02v3.26s3.25,0,3.25,0v9.76h6.51v3.25h-9.76v3.25h19.53v-3.25h-6.51v-3.26s3.26-.21,3.26-.21v-3.05s-3.26,0-3.26,0v-3.26h19.53v3.25h-13.02v3.25h16.27v3.25h-9.76v3.25h16.27v3.26s-3.26,0-3.26,0v3.26h16.28v3.25h-13.02v3.26c8.67-.02,17.36.02,26.04,0v-3.26s-9.77,0-9.77,0v-3.26h19.53v-3.25h-16.27v-3.25h-6.51v-3.25h-6.51v-3.26s-3.26,0-3.26,0v-3.26s-3.25,0-3.25,0v-3.26h3.26s0-3.25,0-3.25h6.51v3.25h6.51v3.25h9.76v3.25h9.76v3.25h9.76v3.25h42.31v3.26s3.25,0,3.25,0v6.51h-26.04v-3.25h-6.51v3.25h-16.27v3.26c-1.08.02-2.17-.02-3.25,0M142.08,133.95h-6.51v3.25h6.51v-3.25ZM174.63,140.46h-29.29v3.25h29.29v-3.25ZM233.22,173h-42.31v3.25h42.31v-3.25ZM210.43,179.51h-16.27v3.25h16.27v-3.25ZM236.47,179.51h-16.27v3.25h16.27v-3.25ZM229.96,186.02h-9.76v3.25h9.76v-3.25ZM239.73,186.02h-6.51v3.25h6.51v-3.25ZM249.49,192.53h-16.27v3.25h16.27v-3.25ZM249.49,199.04h-9.76v3.25h9.76v-3.25ZM216.94,212.06h-9.76v3.25h9.76v-3.25ZM168.12,218.57h-6.51v3.25h6.51v-3.25ZM174.63,225.08h-13.02v3.25h13.02v-3.25ZM259.25,225.08h-52.08v3.25h52.08v-3.25ZM184.4,231.59h-26.04v3.25h26.04v-3.25ZM177.89,244.61h-22.78v3.25h9.76v3.25h-9.76v3.26s3.26,0,3.26,0v3.26h-6.51v3.25h19.53v-3.26s-3.26,0-3.26,0v-3.26h9.77v-3.25h-6.51v-3.25h6.51v-3.25ZM145.34,257.63h-26.04v3.25h26.04v-3.25ZM200.67,270.65h-6.51v3.25h6.51v-3.25ZM190.91,322.72h-26.04v3.25h26.04v-3.25ZM187.65,329.23h-19.53v3.25h19.53v-3.25ZM187.65,335.74h-22.78v3.25h22.78v-3.25ZM187.65,342.25h-22.78v3.25h6.51v3.25h-6.51v3.25h9.76v3.25h-6.51v3.25h6.51v3.26s-3.26,0-3.26,0v3.26h6.51v3.26s-3.26,0-3.26,0v3.05s3.26.21,3.26.21v3.26h-3.26s0,3.25,0,3.25h6.51v3.26s-3.26,0-3.26,0v3.26h13.02v-3.26s-3.26-.21-3.26-.21v-3.05s3.26,0,3.26,0v-6.51h3.26s0-3.05,0-3.05l-3.26-.21v-6.51h-3.26s0-3.05,0-3.05l3.26-.21v-3.26h-6.51v-3.26s3.26,0,3.26,0v-3.26h-9.77v-3.25h9.76v-3.25ZM190.91,387.82h-13.02v3.25h13.02v-3.25ZM190.91,394.33h-16.27v3.25h16.27v-3.25Z"/>
    <path fill="#fff" d="M298.31,404.09v3.26s-3.26.21-3.26.21v3.05s3.26,0,3.26,0v3.26h-22.78v3.25h22.78v3.25h-6.51v3.25h6.51v3.25h-13.02v3.25h13.02v3.25h-6.51v3.25h39.06v3.25h-13.02l-.21,3.26h-3.05s0-3.26,0-3.26h-22.78v3.25h19.53v3.25h-13.02v3.25h-13.02v3.25h-65.09v-3.25h-13.02v-3.25h-6.51v-22.78h39.06v-3.26s-3.26,0-3.26,0v-3.26h32.55v-3.25h-26.04v-3.25h29.29v-3.25h-22.78v-3.25h48.82ZM285.29,407.34h-6.51v3.25h6.51v-3.25ZM249.49,420.36h-3.26v3.26h3.26v-3.26ZM275.53,420.36h-22.78v3.25h22.78v-3.25ZM285.29,420.36h-6.51v3.25h6.51v-3.25ZM259.26,426.87h-3.26v3.26h3.26v-3.26ZM278.78,426.87h-16.27v3.25h16.27v-3.25ZM275.53,433.38h-6.51v3.25h6.51v-3.25Z"/>
    <path fill="#fff" d="M392.7,202.3v6.51h3.26s0,3.05,0,3.05l-3.26.21v3.26h9.77v3.25h-6.51v3.25h9.76v3.25h-6.51v3.25h9.76v3.25h-9.76v3.25h9.76v9.76h-3.26s0,3.26,0,3.26l3.26.21v3.05s-3.26,0-3.26,0v3.26l3.26.21v3.05s-3.26,0-3.26,0v3.26h9.77v3.26s3.25,0,3.25,0v6.51h-3.26s0,3.26,0,3.26h3.26s0,3.25,0,3.25h-3.26v3.05s3.26,0,3.26,0v3.46h-16.28v3.25h13.02v3.25h-13.02v3.25h9.76v3.25h-13.02v-3.26s-3.26,0-3.26,0v-3.26s-6.51,0-6.51,0v-3.25h9.76v-3.25h-6.51v-3.26s3.26,0,3.26,0v-3.26h-9.77v-3.25h6.51v-3.25h-26.04v3.25h16.27v3.26s-3.26,0-3.26,0v3.05s3.26.21,3.26.21v3.26s-3.26,0-3.26,0v6.51h-6.51v-3.26s-3.26,0-3.26,0v-3.26s-6.51,0-6.51,0v-3.25h9.76v-3.25h-22.78v-3.25h6.51v-3.25h-9.76v-6.51l-3.26-.21v-3.05s3.26,0,3.26,0v-6.51h6.51v-3.26s-3.26,0-3.26,0v-3.26h9.77v-3.26s-3.26,0-3.26,0v-3.26h19.53v-3.25h-32.55v-3.25h35.8v-9.76h-3.26s0-3.25,0-3.25h6.51v-3.25h-9.76v-3.25h13.02v-6.51h3.25v-6.51h3.25ZM395.95,231.59h-9.76v3.25h9.76v-3.25ZM395.95,238.1h-9.76v3.25h9.76v-3.25ZM405.72,238.1h-3.26v3.26h3.26v-3.26ZM382.93,244.61h-19.53v3.25h19.53v-3.25ZM395.95,244.61h-6.51v3.25h6.51v-3.25ZM395.95,251.12h-32.55v3.25h32.55v-3.25ZM395.95,257.63h-32.55v3.25h32.55v-3.25ZM399.21,264.14h-35.8v3.25h35.8v-3.25ZM412.23,270.64h-3.26v3.26h3.26v-3.26ZM412.23,277.16h-6.51v3.25h6.51v-3.25Z"/>
    <path fill="#fff" d="M168.12,81.87c0,1.08,0,2.17,0,3.26h6.51s0,6.51,0,6.51h13.02v13.02h3.25v16.27h-29.29v-3.25h9.76v-3.25h-19.53v-3.26s-3.26,0-3.26,0v-3.26s-13.02,0-13.02,0v-3.26s-3.26,0-3.26,0v-3.26s-6.51,0-6.51,0v-3.26s-3.26,0-3.26,0v-3.26s-3.25,0-3.25,0v-6.51h-3.26s0-3.26,0-3.26h-3.26s0-6.51,0-6.51l-3.26-.21v-3.05s3.26,0,3.26,0v-3.26s3.25,0,3.25,0v3.26s13.02,0,13.02,0v3.25h16.27v3.25h16.27v-3.25h-6.51v-3.25h-16.27v-3.26s-3.26,0-3.26,0v-3.26s-3.25,0-3.25,0v-3.26h9.77v3.25h16.27v3.25h6.51v9.76c1.08.02,2.17-.02,3.25,0,0-1.08,0-2.17,0-3.25h9.76v-3.25h-9.76v-3.25h16.27v-3.25h-16.27v-3.25h35.8v3.25h-9.76v3.25h16.27v3.26s-3.26,0-3.26,0v3.26h6.51v3.26c-15.17-.23-30.39.3-45.57,0ZM164.87,94.89h-13.02v3.25h13.02v-3.25ZM171.38,101.4h-6.51v3.25h6.51v-3.25Z"/>
    <path fill="#fff" d="M256,111.17c0-1.08,0-2.17,0-3.26h-3.26s0-6.51,0-6.51h-3.26s0-3.25,0-3.25h-6.51v-3.25h-6.51v-3.25h-6.51v-6.51h-6.51v-3.26s-3.26,0-3.26,0v-3.26h6.51v3.25h6.51v3.25h22.78v-3.25h-9.76v-3.25h-6.51v3.26s-3.25,0-3.25,0v-6.51h6.51v-3.25h71.6v3.25h9.76v3.25h9.76c0,1.08,0,2.17,0,3.25-7.58-.15-15.2.11-22.78,0v3.26h22.79s0-3.26,0-3.26c1.08.02,2.18-.02,3.26,0v3.26s13.02,0,13.02,0v3.25h-94.39v3.25h6.51v3.25h6.51v3.26s3.26,0,3.26,0v3.26h-9.77v3.25h13.02v3.26s-3.26,0-3.26,0v3.26h6.51v3.26s-3.26.21-3.26.21v3.05s3.27.21,3.27.21v3.05s-3.26,0-3.26,0v3.26s3.26,0,3.26,0v9.76h-3.26s0-3.26,0-3.26h-3.26s0-3.25,0-3.25h-3.26s0-3.25,0-3.25h-3.26s0-3.25,0-3.25h-3.26s0-3.25,0-3.25h-3.26s0-6.51,0-6.51c-1.08-.01-2.18.02-3.26,0,0,1.08,0,2.17,0,3.26l-3.26.21v3.05s3.26,0,3.26,0v6.51h6.51v3.25h-9.76v3.25h6.51v3.25h-13.02v-3.25h-13.02v-3.25h-9.76v-3.25h-6.51v-3.25h-9.76v-3.26s-3.26,0-3.26,0v-3.26s-9.76,0-9.76,0v-3.26s3.26,0,3.26,0v-3.25s-3.26,0-3.26,0v-6.51h-3.25v-9.76h3.26c0-1.08,0-2.17,0-3.25-1.08-.02-2.18.02-3.26,0v-3.26h3.26c0,1.08,0,2.17,0,3.26,4.32.08,8.69.03,13.02,0v-3.25h6.51v3.26c-2.16,0-4.34-.02-6.51,0,0,1.08,0,2.17,0,3.25h19.53v3.25h6.51v3.25h6.51v6.51h3.26s0-3.26,0-3.26h3.26s0,3.26,0,3.26h3.26s0,3.05,0,3.05l-3.26.21v3.26c3.25.04,6.52-.06,9.77,0ZM298.31,81.87h-3.26v3.26h3.26v-3.26ZM308.08,81.87h-6.51v3.25h6.51v-3.25ZM246.24,88.38h-6.51v3.25h6.51v-3.25Z"/>
    <path fill="#fff" d="M327.6,182.77c-.01-1.08,0-2.17,0-3.26h-3.26s0-3.25,0-3.25h-6.51v-3.25h-6.51v-6.51h-9.76v-3.25h9.76v-3.25h-16.27v-3.25h13.02v-3.25h-13.02v-3.26s-3.26,0-3.26,0v-3.26s-3.25,0-3.25,0v-6.51h-3.26s0-3.25,0-3.25h6.51v-3.25h-9.76v-3.26s3.26-.21,3.26-.21v-3.05s-3.26,0-3.26,0v-3.26h19.53v-3.25h-19.53v-3.25h22.78v3.26s3.26,0,3.26,0v3.26s3.25,0,3.25,0v6.51h6.51v6.51h6.51v3.26s-3.26.21-3.26.21v3.05s3.26,0,3.26,0v13.02h3.25v6.51h3.26s0,3.26,0,3.26h-3.26s0,3.05,0,3.05l3.26.21v3.05s-3.26.21-3.26.21v3.26s3.26,0,3.26,0v3.26s3.26.21,3.26.21v3.05c-2.17.02-4.35-.03-6.52,0,.01,1.08,0,2.17,0,3.26h9.77s0,3.25,0,3.25c2.16.02,4.35-.03,6.51,0,.04-2.16-.03-4.35,0-6.51h-3.26s0-3.25,0-3.25h-3.26s0-13.02,0-13.02h-3.25v-9.76h3.26s0-3.05,0-3.05l-3.26-.21v-3.26h13.02v3.26s3.26,0,3.26,0v3.26s6.51,0,6.51,0v6.51h3.25v6.51h6.51v6.51h6.51v3.26s-3.26.21-3.26.21v3.05s3.26,0,3.26,0v3.26h-6.51v3.25h9.76v3.25h-9.76v3.25h9.76v3.25h-9.76v3.25h13.02v3.25h-16.27v-6.51h-3.26s0-3.26,0-3.26h-3.26s0-3.25,0-3.25h-6.51v-3.26c-2.16-.02-4.34.03-6.51,0-.02,1.08.02,2.18,0,3.26h-3.26s0,3.25,0,3.25h13.02v6.51h3.25v6.51h6.51v3.26s-3.26,0-3.26,0v3.26h9.77v3.25h-13.02v3.25h16.27v3.25h-16.27v3.25h19.53v3.25h-32.55v-3.25h-9.76v-3.26s-3.26,0-3.26,0v-3.26s-3.25,0-3.25,0v-3.26s-6.51,0-6.51,0v-3.26s3.26,0,3.26,0v-3.26h-9.77v-3.26s3.26,0,3.26,0v-3.26h-9.77v-3.25h6.51v-3.25h-16.27v-3.25h29.29v-3.25h-16.27v-3.25h9.76v-6.51c2.16-.02,4.35.03,6.51,0ZM298.31,127.44h-3.26v3.26h3.26v-3.26ZM301.57,133.95h-6.51v3.25h6.51v-3.25ZM308.08,133.95h-3.26v3.26h3.26v-3.26ZM301.57,140.46h-3.26v3.26h3.26v-3.26ZM311.33,140.46h-3.26v3.26h3.26v-3.26ZM304.82,146.97h-3.26v3.26h3.26v-3.26ZM350.39,159.99h-6.51v3.25h6.51v-3.25ZM350.39,166.49h-3.26v3.26h3.26v-3.26ZM360.15,173h-9.76v3.25h9.76v-3.25ZM356.9,179.51h-3.26v3.26h3.26v-3.26Z"/>
    <path fill="#fff" d="M340.62,91.64v3.25h-32.55v3.25h32.55v3.25h-29.29v3.25h35.8v3.25h-48.82v-3.25h6.51v-3.25h-26.04v-3.26s3.26,0,3.26,0v-3.26h-9.77v-3.25h68.35ZM291.8,94.89h-3.26v3.26h3.26v-3.26Z"/>
    <path fill="#fff" d="M295.06,325.98c-1.08-.01-2.17,0-3.26,0v-3.26s-6.51,0-6.51,0v-3.25h6.51v-3.25h-6.51v-3.25h6.51v-3.25h-6.51v-6.51h3.26s0-3.25,0-3.25h6.51v-6.51h9.76v-3.26s-3.26,0-3.26,0v-3.26l3.26-.21v-3.05s-3.26,0-3.26,0v-3.26h9.77v-6.51h9.76v3.26s-3.25,0-3.25,0v6.51h-3.25v6.51h-6.51v3.26s3.26,0,3.26,0v3.26h-13.02v3.25h6.51v3.25h-13.02v3.25h22.78v3.26s-3.25,0-3.25,0v6.51h-3.25v6.51h-13.02c0,1.08,0,2.17,0,3.25,1.08.01,2.17,0,3.26,0v3.26h-3.26s0-3.26,0-3.26ZM308.08,309.7h-9.76v3.25h9.76v-3.25Z"/>
    <path fill="#fff" d="M304.82,228.33h3.26s0,3.26,0,3.26h3.26s0,3.25,0,3.25h6.51v3.25h-19.53v3.25h-6.51v3.26s-3.25,0-3.25,0v6.51h-3.26c-.06,4.33.09,8.69,0,13.02,2.16.03,4.35-.02,6.51,0v6.51h-16.27v-3.26s9.77,0,9.77,0c.01-1.08-.02-2.18,0-3.26-2.16-.03-4.35.02-6.51,0v-3.26s-3.25,0-3.25,0v-13.02h3.26s0-3.25,0-3.25h-6.51v-3.25h9.76v-3.26s3.26,0,3.26,0v-3.26s6.51,0,6.51,0v-3.25h6.51v-3.26s3.26,0,3.26,0"/>
    <polygon fill="#fff" points="314.58 254.37 314.58 260.88 324.35 260.88 324.35 264.14 314.58 264.14 314.58 267.39 324.35 267.39 324.35 270.65 308.08 270.65 308.07 267.39 311.33 267.39 311.33 264.14 301.57 264.14 301.56 260.88 304.83 260.67 304.82 257.63 301.56 257.63 301.57 254.37 314.58 254.37"/>
    <polygon fill="#fff" points="301.57 384.56 301.57 387.82 291.8 387.82 291.8 391.07 304.82 391.07 304.82 394.33 275.53 394.33 275.53 391.07 288.55 391.07 288.55 387.82 278.78 387.82 278.78 384.56 301.57 384.56"/>
    <rect fill="#fff" x="304.82" y="430.13" width="39.06" height="3.25"/>
    <rect fill="#fff" x="246.24" y="293.43" width="32.55" height="3.25"/>
    <polygon fill="#fff" points="259.25 241.35 259.25 244.61 252.75 244.61 252.75 247.86 246.24 247.86 246.24 244.61 233.22 244.61 233.22 241.35 259.25 241.35"/>
    <rect fill="#fff" x="246.24" y="312.96" width="29.29" height="3.25"/>
    <rect fill="#fff" x="246.24" y="299.94" width="29.29" height="3.25"/>
    <rect fill="#fff" x="249.49" y="286.92" width="29.29" height="3.25"/>
    <rect fill="#fff" x="246.24" y="319.47" width="29.29" height="3.25"/>
    <rect fill="#fff" x="249.49" y="306.45" width="26.04" height="3.25"/>
    <rect fill="#fff" x="308.08" y="111.17" width="26.04" height="3.25"/>
    <polygon fill="#fff" points="119.3 273.9 119.3 277.16 109.54 277.16 109.54 280.41 112.79 280.41 112.79 283.67 103.03 283.67 103.03 280.41 106.28 280.41 106.28 273.9 119.3 273.9"/>
    <rect fill="#fff" x="272.27" y="397.58" width="26.04" height="3.25"/>
    <rect fill="#fff" x="304.82" y="423.62" width="19.53" height="3.25"/>
    <rect fill="#fff" x="298.31" y="247.86" width="19.53" height="3.25"/>
    <rect fill="#fff" x="256" y="280.41" width="19.53" height="3.25"/>
    <rect fill="#fff" x="311.33" y="345.5" width="19.53" height="3.25"/>
    <rect fill="#fff" x="285.29" y="378.05" width="19.53" height="3.25"/>
    <rect fill="#fff" x="171.38" y="59.09" width="16.27" height="3.25"/>
    <rect fill="#fff" x="291.8" y="371.54" width="16.27" height="3.25"/>
    <rect fill="#fff" x="314.58" y="339" width="13.02" height="3.25"/>
    <rect fill="#fff" x="366.66" y="208.81" width="13.02" height="3.25"/>
    <rect fill="#fff" x="259.25" y="325.98" width="13.02" height="3.25"/>
    <rect fill="#fff" x="285.29" y="111.17" width="13.02" height="3.25"/>
    <rect fill="#fff" x="86.75" y="306.45" width="13.02" height="3.25"/>
    <rect fill="#fff" x="311.33" y="417.11" width="13.02" height="3.25"/>
    <rect fill="#fff" x="242.98" y="325.98" width="13.02" height="3.25"/>
    <rect fill="#fff" x="311.33" y="352.01" width="13.02" height="3.25"/>
    <rect fill="#fff" x="330.86" y="137.2" width="9.76" height="3.25"/>
    <rect fill="#fff" x="119.3" y="241.35" width="9.76" height="3.25"/>
    <rect fill="#fff" x="304.82" y="241.35" width="9.76" height="3.25"/>
    <rect fill="#fff" x="272.27" y="195.79" width="9.76" height="3.25"/>
    <rect fill="#fff" x="269.02" y="234.84" width="9.76" height="3.25"/>
    <rect fill="#fff" x="233.22" y="247.86" width="9.76" height="3.25"/>
    <rect fill="#fff" x="265.76" y="273.9" width="9.76" height="3.25"/>
    <rect fill="#fff" x="301.57" y="365.03" width="9.76" height="3.25"/>
    <rect fill="#fff" x="314.58" y="410.6" width="9.76" height="3.25"/>
    <rect fill="#fff" x="93.26" y="299.94" width="9.76" height="3.25"/>
    <rect fill="#fff" x="343.88" y="91.64" width="6.51" height="3.25"/>
    <rect fill="#fff" x="337.37" y="423.62" width="6.51" height="3.25"/>
    <rect fill="#fff" x="347.13" y="143.71" width="6.51" height="3.25"/>
    <rect fill="#fff" x="311.33" y="182.77" width="6.51" height="3.25"/>
    <rect fill="#fff" x="317.84" y="254.37" width="6.51" height="3.25"/>
    <rect fill="#fff" x="99.77" y="286.92" width="6.51" height="3.25"/>
    <rect fill="#fff" x="96.52" y="293.43" width="6.51" height="3.25"/>
    <rect fill="#fff" x="295.06" y="215.32" width="6.51" height="3.25"/>
    <rect fill="#fff" x="314.58" y="299.94" width="6.51" height="3.25"/>
    <rect fill="#fff" x="295.06" y="208.81" width="6.51" height="3.25"/>
    <rect fill="#fff" x="291.8" y="202.3" width="6.51" height="3.25"/>
    <rect fill="#fff" x="285.29" y="195.79" width="6.51" height="3.25"/>
    <rect fill="#fff" x="262.51" y="332.49" width="6.51" height="3.25"/>
    <rect fill="#fff" x="259.25" y="195.79" width="6.51" height="3.25"/>
    <rect fill="#fff" x="308.08" y="358.52" width="6.51" height="3.25"/>
    <rect fill="#fff" x="262.51" y="397.58" width="6.51" height="3.25"/>
    <rect fill="#fff" x="317.84" y="404.09" width="6.51" height="3.25"/>
    <rect fill="#fff" x="285.29" y="104.65" width="3.26" height="3.26"/>
    <rect fill="#fff" x="334.11" y="117.67" width="3.26" height="3.26"/>
    <rect fill="#fff" x="301.56" y="221.82" width="3.26" height="3.26"/>
    <rect fill="#fff" x="321.09" y="332.48" width="3.26" height="3.26"/>
    <rect fill="#fff" x="233.22" y="260.88" width="3.26" height="3.26"/>
    <rect fill="#fff" x="291.8" y="273.9" width="3.26" height="3.26"/>
    <rect fill="#fff" x="343.88" y="241.35" width="3.26" height="3.26"/>
    <rect fill="#fff" x="278.78" y="273.9" width="3.26" height="3.26"/>
    <rect fill="#fff" x="334.11" y="130.69" width="3.26" height="3.26"/>
    <rect fill="#fff" x="233.22" y="254.37" width="3.26" height="3.26"/>
    <rect fill="#fff" x="86.75" y="312.96" width="3.26" height="3.26"/>
    <rect fill="#fff" x="321.09" y="397.58" width="3.26" height="3.26"/>
    <rect fill="#fff" x="190.9" y="404.09" width="3.26" height="3.26"/>
    <rect fill="#fff" x="321.09" y="293.43" width="3.26" height="3.26"/>
    <rect fill="#fff" x="327.6" y="280.41" width="3.26" height="3.26"/>
    <rect fill="#fff" x="233.22" y="267.39" width="3.26" height="3.26"/>
    <rect fill="#fff" x="330.86" y="273.9" width="3.26" height="3.26"/>
    <rect fill="#fff" x="324.35" y="286.92" width="3.26" height="3.26"/>
    <polygon points="187.65 342.25 187.65 345.5 177.89 345.5 177.89 348.76 187.65 348.76 187.65 352.02 184.39 352.01 184.4 355.27 190.91 355.27 190.91 358.53 187.64 358.73 187.65 361.78 190.91 361.78 190.91 368.29 194.17 368.5 194.16 371.54 190.91 371.54 190.91 378.05 187.65 378.05 187.64 381.1 190.91 381.3 190.91 384.56 177.89 384.56 177.88 381.3 181.14 381.31 181.14 378.05 174.63 378.05 174.63 374.8 177.89 374.8 177.89 371.54 174.63 371.33 174.63 368.29 177.89 368.29 177.89 365.03 171.38 365.03 171.38 361.78 174.63 361.78 174.63 358.52 168.12 358.52 168.12 355.27 174.63 355.27 174.63 352.01 164.87 352.01 164.87 348.76 171.38 348.76 171.38 345.5 164.87 345.5 164.87 342.25 187.65 342.25"/>
    <polygon points="177.89 244.61 177.89 247.86 171.38 247.86 171.38 251.12 177.89 251.12 177.89 254.37 168.12 254.37 168.12 257.63 171.38 257.63 171.38 260.88 151.85 260.88 151.85 257.63 158.36 257.63 158.36 254.37 155.1 254.37 155.1 251.12 164.87 251.12 164.87 247.86 155.1 247.86 155.1 244.61 177.89 244.61"/>
    <rect x="207.18" y="225.08" width="52.08" height="3.25"/>
    <rect x="190.91" y="173" width="42.31" height="3.25"/>
    <rect x="145.34" y="140.46" width="29.29" height="3.25"/>
    <rect x="158.36" y="231.59" width="26.04" height="3.25"/>
    <rect x="164.87" y="322.72" width="26.04" height="3.25"/>
    <rect x="119.3" y="257.63" width="26.04" height="3.25"/>
    <rect x="164.87" y="335.74" width="22.78" height="3.25"/>
    <rect x="168.12" y="329.23" width="19.53" height="3.25"/>
    <rect x="233.22" y="192.53" width="16.27" height="3.25"/>
    <rect x="174.63" y="394.33" width="16.27" height="3.25"/>
    <rect x="194.16" y="179.51" width="16.27" height="3.25"/>
    <rect x="220.2" y="179.51" width="16.27" height="3.25"/>
    <rect x="161.61" y="225.08" width="13.02" height="3.25"/>
    <rect x="177.89" y="387.82" width="13.02" height="3.25"/>
    <rect x="239.73" y="199.04" width="9.76" height="3.25"/>
    <rect x="220.2" y="186.02" width="9.76" height="3.25"/>
    <rect x="207.18" y="212.06" width="9.76" height="3.25"/>
    <rect x="161.61" y="218.57" width="6.51" height="3.25"/>
    <rect x="233.22" y="186.02" width="6.51" height="3.25"/>
    <rect x="135.58" y="133.95" width="32.94" height="3.25"/>
    <rect x="131.9" y="127.44" width="3.26" height="3.25"/>
    <rect x="194.16" y="270.65" width="6.51" height="3.25"/>
    <rect x="252.75" y="420.36" width="22.78" height="3.25"/>
    <rect x="262.51" y="426.87" width="16.27" height="3.25"/>
    <rect x="278.78" y="407.34" width="6.51" height="3.25"/>
    <rect x="278.78" y="420.36" width="6.51" height="3.25"/>
    <rect x="269.02" y="433.38" width="6.51" height="3.25"/>
    <rect x="246.23" y="420.36" width="3.26" height="3.26"/>
    <rect x="256" y="426.87" width="3.26" height="3.26"/>
    <rect x="363.41" y="264.14" width="35.8" height="3.25"/>
    <rect x="363.41" y="251.12" width="32.55" height="3.25"/>
    <rect x="363.41" y="257.63" width="32.55" height="3.25"/>
    <rect x="363.41" y="244.61" width="19.53" height="3.25"/>
    <rect x="386.19" y="238.1" width="9.76" height="3.25"/>
    <rect x="386.19" y="231.59" width="9.76" height="3.25"/>
    <rect x="405.72" y="277.16" width="6.51" height="3.25"/>
    <rect x="389.44" y="244.61" width="6.51" height="3.25"/>
    <rect x="402.46" y="238.1" width="3.26" height="3.26"/>
    <rect x="408.97" y="270.64" width="3.26" height="3.26"/>
    <rect x="151.85" y="94.89" width="13.02" height="3.25"/>
    <rect x="164.87" y="101.4" width="6.51" height="3.25"/>
    <rect x="301.57" y="81.87" width="6.51" height="3.25"/>
    <rect x="239.73" y="88.38" width="6.51" height="3.25"/>
    <rect x="295.05" y="81.87" width="3.26" height="3.26"/>
    <rect x="295.06" y="133.95" width="6.51" height="3.25"/>
    <rect x="295.05" y="127.44" width="3.26" height="3.26"/>
    <rect x="301.56" y="146.97" width="3.26" height="3.26"/>
    <rect x="308.07" y="140.46" width="3.26" height="3.26"/>
    <rect x="298.31" y="140.46" width="3.26" height="3.26"/>
    <rect x="304.82" y="133.95" width="3.26" height="3.26"/>
    <rect x="350.39" y="173" width="9.76" height="3.25"/>
    <rect x="343.88" y="159.99" width="6.51" height="3.25"/>
    <rect x="353.64" y="179.51" width="3.26" height="3.26"/>
    <rect x="347.13" y="166.49" width="3.26" height="3.26"/>
    <rect x="288.55" y="94.89" width="3.26" height="3.26"/>
    <rect x="298.31" y="309.7" width="9.76" height="3.25"/>
    <rect x="131.07" y="130.69" width="6.51" height="3.25"/>
  </g>
</svg>
